<svg width="400" height="400" viewBox="0 0 400 400" xmlns="http://www.w3.org/2000/svg">
  
  <g transform="translate(200, 200)">
    
    <circle cx="0" cy="0" r="140" fill="none" stroke="#333" stroke-width="15" stroke-dasharray="1 2.49" transform="rotate(-90)" />

    <g transform="rotate(30)">
      <line x1="0" y1="-140" x2="0" y2="-125" stroke="black" stroke-width="2" />
      <text x="0" y="-105" fill="black" font-family="Arial" font-size="14" text-anchor="middle" transform="rotate(-30 0 -105)">30</text>
    </g>
    <g transform="rotate(60)">
      <line x1="0" y1="-140" x2="0" y2="-125" stroke="black" stroke-width="2" />
      <text x="0" y="-105" fill="black" font-family="Arial" font-size="14" text-anchor="middle" transform="rotate(-60 0 -105)">60</text>
    </g>
    <g transform="rotate(90)">
      <line x1="0" y1="-140" x2="0" y2="-125" stroke="black" stroke-width="2" />
      <text x="0" y="-105" fill="black" font-family="Arial" font-size="14" text-anchor="middle" transform="rotate(-90 0 -105)">90</text>
    </g>
    <g transform="rotate(120)">
      <line x1="0" y1="-140" x2="0" y2="-125" stroke="black" stroke-width="2" />
      <text x="0" y="-105" fill="black" font-family="Arial" font-size="14" text-anchor="middle" transform="rotate(-120 0 -105)">120</text>
    </g>
    <g transform="rotate(150)">
      <line x1="0" y1="-140" x2="0" y2="-125" stroke="black" stroke-width="2" />
      <text x="0" y="-105" fill="black" font-family="Arial" font-size="14" text-anchor="middle" transform="rotate(-150 0 -105)">150</text>
    </g>
    <g transform="rotate(180)">
      <line x1="0" y1="-140" x2="0" y2="-125" stroke="black" stroke-width="2" />
      <text x="0" y="-105" fill="black" font-family="Arial" font-size="14" text-anchor="middle" transform="rotate(-180 0 -105)">180</text>
    </g>
    <g transform="rotate(210)">
      <line x1="0" y1="-140" x2="0" y2="-125" stroke="black" stroke-width="2" />
      <text x="0" y="-105" fill="black" font-family="Arial" font-size="14" text-anchor="middle" transform="rotate(-210 0 -105)">210</text>
    </g>
    <g transform="rotate(240)">
      <line x1="0" y1="-140" x2="0" y2="-125" stroke="black" stroke-width="2" />
      <text x="0" y="-105" fill="black" font-family="Arial" font-size="14" text-anchor="middle" transform="rotate(-240 0 -105)">240</text>
    </g>
    <g transform="rotate(270)">
      <line x1="0" y1="-140" x2="0" y2="-125" stroke="black" stroke-width="2" />
      <text x="0" y="-105" fill="black" font-family="Arial" font-size="14" text-anchor="middle" transform="rotate(-270 0 -105)">270</text>
    </g>
    <g transform="rotate(300)">
      <line x1="0" y1="-140" x2="0" y2="-125" stroke="black" stroke-width="2" />
      <text x="0" y="-105" fill="black" font-family="Arial" font-size="14" text-anchor="middle" transform="rotate(-300 0 -105)">300</text>
    </g>
    <g transform="rotate(330)">
      <line x1="0" y1="-140" x2="0" y2="-125" stroke="black" stroke-width="2" />
      <text x="0" y="-105" fill="black" font-family="Arial" font-size="14" text-anchor="middle" transform="rotate(-330 0 -105)">330</text>
    </g>

    <g transform="translate(0, -110)">
      <rect x="-12" y="-12" width="24" height="24" fill="black" stroke="black" stroke-width="1"/>
      <rect x="-12" y="-6" width="24" height="4" fill="#FFD700" />
    </g>
  </g>

  <g transform="translate(200, 200)">
    <line x1="-30" y1="0" x2="30" y2="0" stroke="#666" stroke-width="1" opacity="0.5"/>
    <line x1="0" y1="-30" x2="0" y2="30" stroke="#666" stroke-width="1" opacity="0.5"/>
    
    <path d="M0 -60 L-12 10 L0 0 L12 10 Z" fill="#E53935" />
  </g>
</svg>