<?xml version="1.0" encoding="UTF-8"?>
<svg version="1.1" xmlns="http://www.w3.org/2000/svg" width="1024" height="1024">
<path d="M0 0 C337.92 0 675.84 0 1024 0 C1024 337.92 1024 675.84 1024 1024 C686.08 1024 348.16 1024 0 1024 C0 686.08 0 348.16 0 0 Z " fill="#282828" transform="translate(0,0)"/>
<path d="M0 0 C0.84592712 0.00149048 1.69185425 0.00298096 2.56341553 0.0045166 C14.99718856 0.04392261 27.12526743 0.55979584 39.37451172 2.86816406 C41.76656652 3.31559877 44.16314371 3.70378813 46.56640625 4.0859375 C81.01564488 9.89673589 114.05561345 25.2025796 141.75 46.3125 C142.36133789 46.77430664 142.97267578 47.23611328 143.60253906 47.71191406 C160.28253136 60.42495791 175.50329404 75.25440474 187.75 92.3125 C188.33998779 93.11929199 188.33998779 93.11929199 188.94189453 93.94238281 C198.71276088 107.34265776 207.49074493 121.99163415 212.7578125 137.76953125 C213.66305219 140.33451934 213.66305219 140.33451934 215.15625 142.51171875 C217.46755757 146.57350191 218.73518944 150.86402102 220.125 155.3125 C220.42809082 156.2720459 220.73118164 157.2315918 221.04345703 158.22021484 C223.90526339 167.47011668 226.18956628 176.83107233 228.28857422 186.27978516 C228.57772813 187.55359229 228.90154057 188.82054858 229.27490234 190.07226562 C229.99619618 193.47339218 230.12053285 196.90390751 230.296875 200.3671875 C230.33850769 201.15970917 230.38014038 201.95223083 230.42303467 202.76876831 C230.859115 211.65644365 230.99152629 220.54010546 231 229.4375 C231.00133942 230.28024475 231.00267883 231.1229895 231.00405884 231.99127197 C230.99851936 248.16156727 230.93032222 264.78122698 225.47485352 280.17773438 C224.36489648 283.44666814 223.64562334 286.7594901 222.875 290.125 C221.44766346 296.05877016 219.63483165 301.55781792 217.1484375 307.1484375 C216.11918001 309.47720444 215.15257163 311.79501279 214.2265625 314.1640625 C205.55073058 336.25036325 193.87305576 355.93875361 178.15014648 373.72387695 C177.1424902 374.8671759 176.14295424 376.01765042 175.14868164 377.17260742 C164.20423158 389.84782215 152.31857425 401.48031652 138.75 411.3125 C137.69554687 412.08851563 136.64109375 412.86453125 135.5546875 413.6640625 C121.71609623 423.55848525 106.47752982 431.65062439 90.87109375 438.3828125 C89.47528483 438.99460352 88.09151485 439.63476441 86.72265625 440.3046875 C80.87829526 443.11259278 74.86120092 444.72498951 68.59375 446.28515625 C65.77974601 447.03727317 63.13370035 447.8636798 60.3984375 448.83203125 C55.61792271 450.45490094 50.86625472 451.25619542 45.875 451.9375 C45.00238525 452.06302246 44.12977051 452.18854492 43.23071289 452.31787109 C37.74848356 453.08975756 32.27177488 453.73023673 26.74609375 454.1015625 C24.54323962 454.26209813 24.54323962 454.26209813 21.75 455.3125 C-17.28114258 457.57830017 -53.55772039 449.82018011 -89.25 434.3125 C-90.10335937 433.94898438 -90.95671875 433.58546875 -91.8359375 433.2109375 C-107.66773196 426.37826831 -123.22388385 416.57271524 -136.25 405.3125 C-137.3675031 404.37642522 -138.48607635 403.44162717 -139.60546875 402.5078125 C-150.58729151 393.29346959 -160.32545098 383.56165832 -169.25 372.3125 C-169.90613281 371.52359375 -170.56226563 370.7346875 -171.23828125 369.921875 C-185.74981798 352.35680849 -196.52441737 332.27503701 -205.25 311.3125 C-205.58217529 310.53350342 -205.91435059 309.75450684 -206.2565918 308.9519043 C-208.82105737 302.79000422 -210.68198289 296.59195392 -212.3125 290.125 C-212.56999023 289.11542236 -212.82748047 288.10584473 -213.09277344 287.06567383 C-218.20272191 266.78617299 -220.60562771 247.07849382 -220.51074219 226.18725586 C-220.4999165 223.35314007 -220.51076678 220.51964495 -220.5234375 217.68554688 C-220.52997907 208.68503854 -220.37311886 200.1100271 -218.25 191.3125 C-217.97248278 189.8137222 -217.70083745 188.3138341 -217.4375 186.8125 C-214.87044049 174.13890698 -211.23216767 161.60679059 -207.25 149.3125 C-206.75693359 147.76755859 -206.75693359 147.76755859 -206.25390625 146.19140625 C-205.43080275 143.83098883 -204.5497203 141.75660568 -203.375 139.5625 C-201.78119311 136.47561007 -200.44367242 133.36409592 -199.1875 130.125 C-197.81131114 126.60688294 -196.27125463 123.51281982 -194.25 120.3125 C-193.71375 119.178125 -193.1775 118.04375 -192.625 116.875 C-185.53270657 102.55557867 -175.41656871 89.48105462 -164.59375 77.83984375 C-162.55304793 75.63928669 -160.57849882 73.40260203 -158.625 71.125 C-152.68186759 64.30501199 -146.18796568 58.10891541 -139.25 52.3125 C-138.71987305 51.8685791 -138.18974609 51.4246582 -137.64355469 50.96728516 C-126.49040647 41.68117027 -114.85860097 34.16765012 -102.0625 27.3125 C-101.31887207 26.91393799 -100.57524414 26.51537598 -99.80908203 26.10473633 C-94.49611965 23.3125 -94.49611965 23.3125 -92.25 23.3125 C-92.25 22.6525 -92.25 21.9925 -92.25 21.3125 C-90.14828133 20.4730118 -88.04353375 19.64110344 -85.9375 18.8125 C-84.17986328 18.11640625 -84.17986328 18.11640625 -82.38671875 17.40625 C-79.25 16.3125 -79.25 16.3125 -76.25 16.3125 C-76.25 15.6525 -76.25 14.9925 -76.25 14.3125 C-43.85419328 4.43289263 -43.85419328 4.43289263 -31.54296875 2.8046875 C-28.45420937 2.3960043 -28.45420937 2.3960043 -26.28076172 1.82446289 C-17.6021045 -0.26098326 -8.87088462 -0.03836384 0 0 Z " fill="#1F1F1F" transform="translate(559.25,257.6875)"/>
<path d="M0 0 C0.87149689 0.1347876 1.74299377 0.2695752 2.64089966 0.40844727 C5.1133248 0.79781201 7.58242394 1.20287912 10.05078125 1.6171875 C10.79511414 1.73814789 11.53944702 1.85910828 12.30633545 1.98373413 C17.45130419 2.88880419 17.45130419 2.88880419 19.6875 5.125 C19.03604004 5.1343457 18.38458008 5.14369141 17.71337891 5.15332031 C-18.76004298 5.80224566 -57.03499761 12.22942861 -89.875 28.9375 C-92.3125 30.125 -92.3125 30.125 -95.3125 30.125 C-95.3125 30.785 -95.3125 31.445 -95.3125 32.125 C-96.26769531 32.51300781 -97.22289062 32.90101563 -98.20703125 33.30078125 C-116.51491255 41.16015556 -132.94948499 52.59593921 -148.3125 65.125 C-148.86631348 65.57294922 -149.42012695 66.02089844 -149.99072266 66.48242188 C-164.73462554 78.47952738 -178.80628977 91.96711826 -190.3125 107.125 C-191.48232422 108.58679688 -191.48232422 108.58679688 -192.67578125 110.078125 C-199.53018966 118.68539367 -205.46873594 127.81157627 -211.3125 137.125 C-211.93511719 138.09953125 -212.55773437 139.0740625 -213.19921875 140.078125 C-216.60345822 145.53176807 -219.12639014 151.08104921 -221.3125 157.125 C-221.9725 157.125 -222.6325 157.125 -223.3125 157.125 C-223.663125 158.259375 -224.01375 159.39375 -224.375 160.5625 C-225.62685929 164.35334151 -227.09585765 168.00599392 -228.6730957 171.67260742 C-231.98231091 179.40198216 -234.73483355 187.20643296 -237.1875 195.25 C-237.4855957 196.22146973 -237.78369141 197.19293945 -238.09082031 198.19384766 C-239.57749258 203.18086295 -240.60425329 207.96123763 -241.3125 213.125 C-241.63001221 213.89448975 -241.94752441 214.66397949 -242.2746582 215.45678711 C-243.38574845 218.31331622 -243.89091432 220.92095382 -244.34765625 223.94921875 C-244.60192383 225.61694336 -244.60192383 225.61694336 -244.86132812 227.31835938 C-245.03083984 228.47142578 -245.20035156 229.62449219 -245.375 230.8125 C-245.54837891 231.94623047 -245.72175781 233.07996094 -245.90039062 234.24804688 C-249.83360941 260.39415642 -249.80123021 286.71920908 -245.5 312.8125 C-245.36939178 313.60797241 -245.23878357 314.40344482 -245.10421753 315.22302246 C-243.63649009 323.98863901 -241.87459638 332.60479125 -239.3125 341.125 C-239.0199231 342.13977417 -239.0199231 342.13977417 -238.72143555 343.17504883 C-235.75790012 353.3742976 -232.09663333 363.25008507 -228.12939453 373.09619141 C-227.39967251 374.90850164 -226.68146933 376.7254401 -225.96484375 378.54296875 C-223.53449569 384.58367309 -220.72961899 390.22057171 -217.44921875 395.84765625 C-216.3125 398.125 -216.3125 398.125 -216.3125 401.125 C-215.6525 401.125 -214.9925 401.125 -214.3125 401.125 C-213.90644531 402.09373047 -213.90644531 402.09373047 -213.4921875 403.08203125 C-208.59535669 413.79934658 -201.46279124 422.82852974 -194.3125 432.125 C-193.57644531 433.08664062 -192.84039062 434.04828125 -192.08203125 435.0390625 C-190.19985665 437.43893544 -188.27326767 439.78884373 -186.3125 442.125 C-185.85584961 442.67043457 -185.39919922 443.21586914 -184.92871094 443.77783203 C-174.04573597 456.72002976 -162.69145005 468.72539597 -149.3125 479.125 C-148.33023438 479.91261719 -147.34796875 480.70023438 -146.3359375 481.51171875 C-129.41497542 494.97030575 -110.33143064 506.8785655 -90.3125 515.125 C-89.62019287 515.41463623 -88.92788574 515.70427246 -88.21459961 516.00268555 C-81.53800094 518.74542131 -74.75539543 521.01408233 -67.875 523.1875 C-66.81990234 523.52587891 -65.76480469 523.86425781 -64.67773438 524.21289062 C-37.79586337 532.76546128 -10.76127974 536.73264694 17.4375 536.625 C18.37059998 536.62317719 19.30369995 536.62135437 20.26507568 536.61947632 C30.50325952 536.57033358 40.59563721 536.13032042 50.7543335 534.81115723 C55.12342438 534.24625891 59.29490865 534.03614497 63.6875 534.125 C63.6875 533.465 63.6875 532.805 63.6875 532.125 C64.80125 531.89425781 65.915 531.66351562 67.0625 531.42578125 C76.68708575 529.3875211 86.02293162 526.94914641 95.36962891 523.87402344 C98.08618661 522.99616384 100.81364005 522.15760535 103.54296875 521.3203125 C105.57031913 520.69272973 107.59766291 520.06512569 109.625 519.4375 C110.6037207 519.13996826 111.58244141 518.84243652 112.59082031 518.53588867 C113.49799805 518.25205322 114.40517578 517.96821777 115.33984375 517.67578125 C116.15445068 517.42481689 116.96905762 517.17385254 117.80834961 516.9152832 C119.87908874 516.28441693 119.87908874 516.28441693 120.6875 514.125 C122.41992187 513.21508789 122.41992187 513.21508789 124.65625 512.28515625 C137.44856651 506.81103503 149.69561817 500.52083886 161.21875 492.70483398 C164.62210794 490.40139329 167.75896912 488.45721857 171.6875 487.125 C171.6875 486.465 171.6875 485.805 171.6875 485.125 C173.18075434 483.93649144 174.73651283 482.8263947 176.3125 481.75 C193.05008923 469.8282133 208.08789915 455.34387579 220.6875 439.125 C221.58785877 438.01271321 222.49031798 436.90212437 223.39453125 435.79296875 C228.91135151 428.97384197 233.76017651 422.08777979 238.12890625 414.4765625 C238.64324219 413.70054687 239.15757812 412.92453125 239.6875 412.125 C240.3475 412.125 241.0075 412.125 241.6875 412.125 C241.07409192 416.20940015 239.71896933 419.34830501 237.8125 423 C236.22159015 426.06190187 234.70285447 429.08853879 233.36328125 432.26953125 C220.74700684 462.16140638 201.17991485 490.66648116 177.6875 513.125 C175.16415349 515.6317182 172.6597458 518.15353235 170.1796875 520.703125 C164.01697296 526.99461268 157.64173424 532.70069729 150.6875 538.125 C150.07132813 538.61226562 149.45515625 539.09953125 148.8203125 539.6015625 C140.85321652 545.89463831 132.76625274 551.90384764 124.25 557.4375 C123.15824463 558.1488208 123.15824463 558.1488208 122.04443359 558.87451172 C116.94732645 562.125 116.94732645 562.125 114.6875 562.125 C114.3575 563.115 114.0275 564.105 113.6875 565.125 C111.7075 565.455 109.7275 565.785 107.6875 566.125 C107.6875 566.785 107.6875 567.445 107.6875 568.125 C104.9211466 569.46777732 102.14873789 570.79755228 99.375 572.125 C98.19647461 572.69734375 98.19647461 572.69734375 96.99414062 573.28125 C95.8581543 573.82265625 95.8581543 573.82265625 94.69921875 574.375 C94.00272217 574.71015625 93.30622559 575.0453125 92.58862305 575.390625 C90.6875 576.125 90.6875 576.125 87.6875 576.125 C87.6875 576.785 87.6875 577.445 87.6875 578.125 C83.3856684 581.35576333 78.39485474 582.61445494 73.3125 584.125 C68.8334196 585.46872412 64.45639161 586.79413846 60.15625 588.64453125 C56.03169314 590.40489955 51.88064757 591.62733678 47.5625 592.8125 C46.77746094 593.03744141 45.99242187 593.26238281 45.18359375 593.49414062 C41.26422226 594.58138617 37.79702599 595.43032623 33.6875 595.125 C33.6875 595.785 33.6875 596.445 33.6875 597.125 C25.29237803 599.84480193 16.91170669 601.04626115 8.16943359 601.88232422 C6.50719121 602.04485313 4.84599712 602.21846382 3.18603516 602.40283203 C-11.80734269 604.06438956 -26.74295558 604.33692851 -41.8125 604.375 C-42.74953766 604.38017639 -43.68657532 604.38535278 -44.65200806 604.39068604 C-67.08840053 604.48840744 -88.46880736 601.36634483 -110.15722656 595.68408203 C-112.46328161 595.08588696 -114.77409645 594.50899975 -117.0859375 593.93359375 C-126.44394777 591.5773339 -135.38482737 588.83773937 -144.3125 585.125 C-146.06203799 584.43632513 -147.8120117 583.74875575 -149.5625 583.0625 C-156.81916165 580.13661402 -163.90797732 576.86278239 -171 573.5625 C-171.62994873 573.26947998 -172.25989746 572.97645996 -172.90893555 572.67456055 C-176.74091607 570.88354264 -180.53739749 569.03284751 -184.3125 567.125 C-184.3125 566.465 -184.3125 565.805 -184.3125 565.125 C-185.17875 564.856875 -186.045 564.58875 -186.9375 564.3125 C-190.23041964 563.15388013 -193.22377875 561.74290161 -196.3125 560.125 C-196.3125 559.465 -196.3125 558.805 -196.3125 558.125 C-197.17101562 557.88394531 -198.02953125 557.64289062 -198.9140625 557.39453125 C-202.61306493 556.01272 -205.54033456 554.13566869 -208.6875 551.8125 C-209.5844458 551.15979126 -209.5844458 551.15979126 -210.49951172 550.49389648 C-221.33609052 542.51545485 -231.67138574 533.93761768 -241.5 524.75 C-244.33758659 522.10158585 -247.22750241 519.5200522 -250.125 516.9375 C-253.87788474 513.52822703 -257.32510269 510.04306505 -260.5859375 506.1640625 C-262.51744123 503.88296533 -264.53665483 501.69764829 -266.5625 499.5 C-272.14635103 493.2925717 -277.28242887 486.7840508 -282.3125 480.125 C-282.78558594 479.50302734 -283.25867188 478.88105469 -283.74609375 478.24023438 C-292.58315492 466.51735784 -299.72092109 453.96887271 -306.70849609 441.07666016 C-307.78443713 439.09673213 -308.87085545 437.12246448 -309.96728516 435.15380859 C-312.63238523 430.35467063 -315.07679047 425.6805366 -316.9375 420.5 C-318.23630231 416.91677945 -319.61655891 413.43387014 -321.21484375 409.9765625 C-323.67277531 404.49675339 -325.48527063 398.86004564 -327.25 393.125 C-327.59699951 391.99940674 -327.94399902 390.87381348 -328.30151367 389.71411133 C-331.52100656 378.9612596 -333.72652979 368.10338654 -335.72973633 357.0703125 C-336.35118373 353.92949077 -337.10710141 350.83852954 -337.875 347.73046875 C-339.42968958 341.08474945 -340.08896903 334.5533695 -340.5 327.75 C-340.57750488 326.50105957 -340.65500977 325.25211914 -340.73486328 323.96533203 C-342.21585846 297.84448302 -341.69445554 271.96273681 -337.3125 246.125 C-336.9825 245.795 -336.6525 245.465 -336.3125 245.125 C-335.96421083 243.65205412 -335.66416397 242.16760519 -335.38671875 240.6796875 C-332.45011048 225.43097693 -328.4931952 210.80146173 -323.09082031 196.23974609 C-322.06204694 193.44450302 -321.100213 190.62679578 -320.125 187.8125 C-319.05843944 184.8896702 -317.90096705 182.23652175 -316.3125 179.5625 C-314.73318187 176.84804697 -313.64949557 174.52842238 -312.5625 171.625 C-310.78545883 167.02725855 -308.62877793 162.71775476 -306.3125 158.375 C-305.98024414 157.74916016 -305.64798828 157.12332031 -305.30566406 156.47851562 C-303.17688904 152.53913058 -300.80264577 148.85001313 -298.3125 145.125 C-297.46066165 143.50962361 -296.62711975 141.88446141 -295.8125 140.25 C-291.50221984 132.26679941 -285.90092408 125.24067485 -280.3125 118.125 C-279.4764624 117.06031494 -279.4764624 117.06031494 -278.62353516 115.97412109 C-273.07103299 108.94286799 -267.54141335 102.01058344 -261.04296875 95.8203125 C-259.31583904 94.1282712 -257.79414789 92.35920074 -256.25 90.5 C-244.03793001 76.34067511 -228.64659877 63.7250817 -213.3125 53.125 C-212.77995605 52.75584473 -212.24741211 52.38668945 -211.69873047 52.00634766 C-203.95114319 46.66280093 -196.02030091 41.61086785 -188 36.6875 C-187.18861572 36.17928711 -186.37723145 35.67107422 -185.54125977 35.14746094 C-179.99447955 31.78864307 -174.6012446 29.69365315 -168.3125 28.125 C-168.3125 27.465 -168.3125 26.805 -168.3125 26.125 C-165.3425 25.63 -165.3425 25.63 -162.3125 25.125 C-162.3125 24.465 -162.3125 23.805 -162.3125 23.125 C-145.12359318 16.01680545 -127.88659333 8.98372986 -109.5 5.734375 C-106.75321501 5.20925434 -104.26511322 4.52337186 -101.625 3.625 C-69.98043156 -6.29965119 -32.34151689 -5.03342149 0 0 Z " fill="#F4F5F5" transform="translate(553.3125,211.875)"/>
<path d="M0 0 C0.84592712 0.00149048 1.69185425 0.00298096 2.56341553 0.0045166 C14.99718856 0.04392261 27.12526743 0.55979584 39.37451172 2.86816406 C41.76656652 3.31559877 44.16314371 3.70378813 46.56640625 4.0859375 C81.01564488 9.89673589 114.05561345 25.2025796 141.75 46.3125 C142.36133789 46.77430664 142.97267578 47.23611328 143.60253906 47.71191406 C160.28253136 60.42495791 175.50329404 75.25440474 187.75 92.3125 C188.33998779 93.11929199 188.33998779 93.11929199 188.94189453 93.94238281 C198.71276088 107.34265776 207.49074493 121.99163415 212.7578125 137.76953125 C213.66305219 140.33451934 213.66305219 140.33451934 215.15625 142.51171875 C217.46755757 146.57350191 218.73518944 150.86402102 220.125 155.3125 C220.42809082 156.2720459 220.73118164 157.2315918 221.04345703 158.22021484 C223.90526339 167.47011668 226.18956628 176.83107233 228.28857422 186.27978516 C228.57772813 187.55359229 228.90154057 188.82054858 229.27490234 190.07226562 C229.99619618 193.47339218 230.12053285 196.90390751 230.296875 200.3671875 C230.33850769 201.15970917 230.38014038 201.95223083 230.42303467 202.76876831 C230.859115 211.65644365 230.99152629 220.54010546 231 229.4375 C231.00133942 230.28024475 231.00267883 231.1229895 231.00405884 231.99127197 C230.99851936 248.16156727 230.93032222 264.78122698 225.47485352 280.17773438 C224.36489648 283.44666814 223.64562334 286.7594901 222.875 290.125 C221.44766346 296.05877016 219.63483165 301.55781792 217.1484375 307.1484375 C216.11918001 309.47720444 215.15257163 311.79501279 214.2265625 314.1640625 C205.55073058 336.25036325 193.87305576 355.93875361 178.15014648 373.72387695 C177.1424902 374.8671759 176.14295424 376.01765042 175.14868164 377.17260742 C164.20423158 389.84782215 152.31857425 401.48031652 138.75 411.3125 C137.69554687 412.08851563 136.64109375 412.86453125 135.5546875 413.6640625 C121.71609623 423.55848525 106.47752982 431.65062439 90.87109375 438.3828125 C89.47528483 438.99460352 88.09151485 439.63476441 86.72265625 440.3046875 C80.87829526 443.11259278 74.86120092 444.72498951 68.59375 446.28515625 C65.77974601 447.03727317 63.13370035 447.8636798 60.3984375 448.83203125 C55.61792271 450.45490094 50.86625472 451.25619542 45.875 451.9375 C45.00238525 452.06302246 44.12977051 452.18854492 43.23071289 452.31787109 C37.74848356 453.08975756 32.27177488 453.73023673 26.74609375 454.1015625 C24.54323962 454.26209813 24.54323962 454.26209813 21.75 455.3125 C-17.28114258 457.57830017 -53.55772039 449.82018011 -89.25 434.3125 C-90.10335937 433.94898438 -90.95671875 433.58546875 -91.8359375 433.2109375 C-107.66773196 426.37826831 -123.22388385 416.57271524 -136.25 405.3125 C-137.3675031 404.37642522 -138.48607635 403.44162717 -139.60546875 402.5078125 C-150.58729151 393.29346959 -160.32545098 383.56165832 -169.25 372.3125 C-169.90613281 371.52359375 -170.56226563 370.7346875 -171.23828125 369.921875 C-185.74981798 352.35680849 -196.52441737 332.27503701 -205.25 311.3125 C-205.58217529 310.53350342 -205.91435059 309.75450684 -206.2565918 308.9519043 C-208.82105737 302.79000422 -210.68198289 296.59195392 -212.3125 290.125 C-212.56999023 289.11542236 -212.82748047 288.10584473 -213.09277344 287.06567383 C-218.20272191 266.78617299 -220.60562771 247.07849382 -220.51074219 226.18725586 C-220.4999165 223.35314007 -220.51076678 220.51964495 -220.5234375 217.68554688 C-220.52997907 208.68503854 -220.37311886 200.1100271 -218.25 191.3125 C-217.97248278 189.8137222 -217.70083745 188.3138341 -217.4375 186.8125 C-214.87044049 174.13890698 -211.23216767 161.60679059 -207.25 149.3125 C-206.75693359 147.76755859 -206.75693359 147.76755859 -206.25390625 146.19140625 C-205.43080275 143.83098883 -204.5497203 141.75660568 -203.375 139.5625 C-201.78119311 136.47561007 -200.44367242 133.36409592 -199.1875 130.125 C-197.81131114 126.60688294 -196.27125463 123.51281982 -194.25 120.3125 C-193.71375 119.178125 -193.1775 118.04375 -192.625 116.875 C-185.53270657 102.55557867 -175.41656871 89.48105462 -164.59375 77.83984375 C-162.55304793 75.63928669 -160.57849882 73.40260203 -158.625 71.125 C-152.68186759 64.30501199 -146.18796568 58.10891541 -139.25 52.3125 C-138.71987305 51.8685791 -138.18974609 51.4246582 -137.64355469 50.96728516 C-126.49040647 41.68117027 -114.85860097 34.16765012 -102.0625 27.3125 C-101.31887207 26.91393799 -100.57524414 26.51537598 -99.80908203 26.10473633 C-94.49611965 23.3125 -94.49611965 23.3125 -92.25 23.3125 C-92.25 22.6525 -92.25 21.9925 -92.25 21.3125 C-90.14828133 20.4730118 -88.04353375 19.64110344 -85.9375 18.8125 C-84.17986328 18.11640625 -84.17986328 18.11640625 -82.38671875 17.40625 C-79.25 16.3125 -79.25 16.3125 -76.25 16.3125 C-76.25 15.6525 -76.25 14.9925 -76.25 14.3125 C-43.85419328 4.43289263 -43.85419328 4.43289263 -31.54296875 2.8046875 C-28.45420937 2.3960043 -28.45420937 2.3960043 -26.28076172 1.82446289 C-17.6021045 -0.26098326 -8.87088462 -0.03836384 0 0 Z M-47.29296875 19.61889648 C-49.8216892 20.5151159 -52.3830647 21.10511845 -55 21.6875 C-66.30179242 24.45207026 -76.78917414 29.30781389 -87.25 34.3125 C-88.20261719 34.75078125 -89.15523438 35.1890625 -90.13671875 35.640625 C-102.65494294 41.58379283 -114.63077217 49.41135723 -125.25 58.3125 C-126.25675781 59.13621094 -127.26351562 59.95992188 -128.30078125 60.80859375 C-153.80981247 81.94443748 -174.36412485 107.15203458 -188.25 137.3125 C-188.78238281 138.46105469 -189.31476563 139.60960937 -189.86328125 140.79296875 C-212.87590395 192.46730758 -213.50874137 252.87349688 -193.625 305.625 C-192.84730465 307.52660724 -192.05581636 309.42263753 -191.25 311.3125 C-190.78207031 312.446875 -190.31414062 313.58125 -189.83203125 314.75 C-188.65044968 317.60962599 -187.4564229 320.46328848 -186.25 323.3125 C-185.59 323.3125 -184.93 323.3125 -184.25 323.3125 C-184.14429688 324.02792969 -184.03859375 324.74335937 -183.9296875 325.48046875 C-180.18006739 341.10388588 -164.99076879 357.13872919 -154.53369141 368.86572266 C-152.88913295 370.71921322 -151.29215135 372.6119496 -149.6875 374.5 C-116.66565406 411.91942832 -66.65683903 437.36117875 -16.73046875 440.9921875 C9.42061775 442.47876867 35.06759068 442.54944461 60.15625 434.17578125 C62.88209312 433.26853527 65.63493029 432.60858788 68.4296875 431.94921875 C74.28148994 430.34342111 80.00874146 428.27110643 85.75 426.3125 C85.75 425.6525 85.75 424.9925 85.75 424.3125 C86.28625 424.27253906 86.8225 424.23257812 87.375 424.19140625 C106.68533415 421.61881239 128.54792609 403.79537549 142.75 391.3125 C143.64976562 390.53261719 144.54953125 389.75273438 145.4765625 388.94921875 C163.06840496 373.28612579 163.06840496 373.28612579 176.75 354.3125 C176.75 353.6525 176.75 352.9925 176.75 352.3125 C177.41 352.3125 178.07 352.3125 178.75 352.3125 C180.43572767 350.038646 180.43572767 350.038646 182.125 347.1875 C183.95622721 344.21074739 185.78353521 341.26350205 187.7578125 338.37890625 C189.86285883 335.13878593 191.56105369 331.84885547 193.25 328.375 C194.98216777 324.82011933 196.72279829 321.35831621 198.7421875 317.95703125 C201.14283873 313.81029402 202.75166604 309.43399142 204.375 304.9375 C204.6740625 304.13828125 204.973125 303.3390625 205.28125 302.515625 C206.99732213 297.82300299 208.32922212 293.20139205 209.29077148 288.296875 C209.75 286.3125 209.75 286.3125 211.1875 282.6875 C213.62320429 276.48752545 214.64263175 269.8564118 215.75 263.3125 C215.92136475 262.39090088 216.09272949 261.46930176 216.26928711 260.51977539 C218.18982585 249.05610124 218.18794696 237.59650461 218.1875 226 C218.18923218 224.93445892 218.19096436 223.86891785 218.19274902 222.77108765 C218.1812928 206.74278073 217.32920978 191.77319949 212.75 176.3125 C212.37749564 174.97398853 212.00509078 173.63544937 211.6328125 172.296875 C210.74198942 169.27221991 209.76412223 166.29729643 208.75 163.3125 C208.26571261 161.62646243 207.78637152 159.93899459 207.3125 158.25 C205.55462677 152.41535694 203.21879778 146.87851682 200.75 141.3125 C200.46495605 140.66861328 200.17991211 140.02472656 199.88623047 139.36132812 C190.61241526 118.58247772 178.61342207 99.7349854 162.75 83.3125 C162.14526855 82.6819873 161.54053711 82.05147461 160.91748047 81.40185547 C152.05003925 72.19588154 143.14047763 63.76971077 132.75 56.3125 C131.39391778 55.2733283 130.03950091 54.23197611 128.6875 53.1875 C120.67783904 47.24322331 112.53789559 41.98179351 103.53125 37.67578125 C101.11594154 36.49187303 98.86030665 35.20444057 96.5625 33.8125 C89.76195732 29.95844473 82.135779 27.77631431 74.75 25.3125 C73.8321875 25.00183594 72.914375 24.69117188 71.96875 24.37109375 C70.60108385 23.91119193 69.23163141 23.45651682 67.859375 23.01049805 C66.5107447 22.56423254 65.16692668 22.10296729 63.83007812 21.62255859 C32.36225053 10.50082639 -15.71273917 8.23885624 -47.29296875 19.61889648 Z " fill="#F1F1F1" transform="translate(559.25,257.6875)"/>
<path d="M0 0 C4.35309155 0.68733024 5.69441754 1.1948835 8.5625 4.5625 C9.32654118 8.5736665 9.22080183 12.55516891 9.17431641 16.62719727 C9.17998123 17.86166595 9.18564606 19.09613464 9.19148254 20.36801147 C9.20035804 23.05054301 9.20020558 25.73127832 9.18465042 28.41360664 C9.16033747 32.65335663 9.1718259 36.89254917 9.18832397 41.13230896 C9.21281385 48.59984085 9.20701809 56.06711914 9.19451904 63.53466797 C9.17592919 74.78171654 9.18074993 86.02871756 9.21455324 97.27573055 C9.22607964 101.49160994 9.22161233 105.70708442 9.20453286 109.92294133 C9.19479565 113.15770379 9.20380412 116.39243061 9.20947266 119.62719727 C9.20018234 120.79767105 9.19089203 121.96814484 9.18132019 123.17408752 C9.18663254 124.24102844 9.19194489 125.30796936 9.19741821 126.40724182 C9.19553308 127.33582284 9.19364796 128.26440386 9.1917057 129.2211237 C9.388924 131.60768554 9.388924 131.60768554 10.86276913 133.36146545 C13.78190991 135.42413842 17.19699286 134.96559226 20.64233398 134.93139648 C21.46540039 134.93516296 22.2884668 134.93892944 23.13647461 134.94281006 C24.92399901 134.949247 26.71155762 134.9489083 28.49908257 134.94262505 C31.32767048 134.93353243 34.15559301 134.94371743 36.98414612 134.95924377 C45.02595965 134.99939608 53.06772208 135.00054428 61.10961914 134.99829102 C66.02801036 134.99823996 70.946043 135.01738398 75.86433601 135.04762459 C78.65201374 135.05847088 81.43901315 135.04630672 84.22666931 135.03379822 C85.93554358 135.04270124 87.64441228 135.05277514 89.35327148 135.06420898 C90.12899002 135.05446548 90.90470856 135.04472198 91.70393372 135.03468323 C95.24970925 135.08208784 97.18987486 135.27641361 100.04237366 137.46644592 C102.62114785 141.02223599 102.10959553 143.25412268 101.5625 147.5625 C99.11180873 150.36322979 97.53798023 150.56492662 93.80554199 150.93431091 C92.26560897 150.94853178 90.72547257 150.94638938 89.18554688 150.93139648 C87.92146751 150.9370462 87.92146751 150.9370462 86.6318512 150.94281006 C84.80451062 150.94923949 82.97713659 150.94891534 81.14979553 150.94262505 C78.25812395 150.93352094 75.3671016 150.9437303 72.47546387 150.95924377 C64.25530002 150.99936678 56.03518687 151.00054309 47.81494141 150.99829102 C42.78517516 150.99823997 37.75575966 151.01737886 32.72608948 151.04762459 C29.87636883 151.05846961 27.02731184 151.04630839 24.1776123 151.03379822 C22.43155251 151.04270076 20.68549817 151.05277449 18.93945312 151.06420898 C18.14660416 151.05446548 17.35375519 151.04472198 16.53688049 151.03468323 C12.91879494 151.0820377 11.0044843 151.18961908 8.18908691 153.56483459 C7.38392639 154.55367897 7.38392639 154.55367897 6.5625 155.5625 C1.68519356 156.49830839 -4.18672339 156.26753966 -8.4375 153.5625 C-12.09354006 149.65431925 -11.79319088 145.35384845 -11.8359375 140.28125 C-11.4375 137.5625 -11.4375 137.5625 -9.93583584 135.22939301 C-8.25466964 132.23707963 -8.06353506 130.57340067 -8.06568909 127.17346191 C-8.05893158 126.10521683 -8.05217407 125.03697174 -8.04521179 123.93635559 C-8.05293106 122.7746434 -8.06065033 121.61293121 -8.06860352 120.41601562 C-8.06483704 119.18461349 -8.06107056 117.95321136 -8.05718994 116.68449402 C-8.05075544 114.01170289 -8.04964561 111.33952222 -8.05737495 108.66679382 C-8.06897788 104.4390989 -8.05677929 100.21167709 -8.04075623 95.98400879 C-8.00459785 85.48494093 -7.99833268 74.98587985 -8.00085449 64.48675537 C-8.00256594 56.32333352 -7.99544305 48.16013533 -7.96087593 39.9967761 C-7.94408981 35.79562898 -7.94586891 31.59502763 -7.96169865 27.39388275 C-7.96886011 24.16552934 -7.95025943 20.93730233 -7.93579102 17.70898438 C-7.94553452 16.54727219 -7.95527802 15.38556 -7.96531677 14.18864441 C-7.89526412 6.37504833 -7.89526412 6.37504833 -5.62120056 2.33850098 C-3.4375 0.5625 -3.4375 0.5625 0 0 Z " fill="#F1F1F1" transform="translate(563.4375,346.4375)"/>
<path d="M0 0 C0.66 0 1.32 0 2 0 C2.51046875 1.17755859 2.51046875 1.17755859 3.03125 2.37890625 C8.05320028 13.26425062 13.78827324 18.82155554 25 23 C25 23.66 25 24.32 25 25 C24.21496094 25.3403125 23.42992187 25.680625 22.62109375 26.03125 C11.73574938 31.05320028 6.17844446 36.78827324 2 48 C1.34 48 0.68 48 0 48 C-0.3403125 47.21496094 -0.680625 46.42992187 -1.03125 45.62109375 C-6.05320028 34.73574938 -11.78827324 29.17844446 -23 25 C-23 24.34 -23 23.68 -23 23 C-22.21496094 22.6596875 -21.42992187 22.319375 -20.62109375 21.96875 C-9.73574938 16.94679972 -4.17844446 11.21172676 0 0 Z " fill="#929191" transform="translate(967,944)"/>
<path d="M0 0 C0.33 0.66 0.66 1.32 1 2 C1.99 2 2.98 2 4 2 C7 5.33333333 7 5.33333333 7 8 C7.99 8 8.98 8 10 8 C10.33 9.32 10.66 10.64 11 12 C11.66 12 12.32 12 13 12 C15.125 13.875 15.125 13.875 17 16 C17 16.66 17 17.32 17 18 C18.32 18.66 19.64 19.32 21 20 C21 20.99 21 21.98 21 23 C21.78375 23.309375 22.5675 23.61875 23.375 23.9375 C26 25 26 25 28 26 C28 26.99 28 27.98 28 29 C26.948125 28.9071875 26.948125 28.9071875 25.875 28.8125 C22.91409408 28.79455452 22.91409408 28.79455452 20.375 30.5 C16.1023699 32.39894671 12.72815472 32.33963816 8.125 32.1875 C6.949375 32.16719727 6.949375 32.16719727 5.75 32.14648438 C3.83303218 32.11141789 1.91642249 32.05762072 0 32 C-0.2475 31.42121094 -0.495 30.84242188 -0.75 30.24609375 C-2.60977915 26.9043031 -5.33764322 24.67493651 -8.125 22.09765625 C-10 20 -10 20 -11.0625 17.30859375 C-11.371875 16.54675781 -11.68125 15.78492188 -12 15 C-12.99 14.67 -13.98 14.34 -15 14 C-14.30132813 13.91363281 -13.60265625 13.82726562 -12.8828125 13.73828125 C-10.16258911 13.31830342 -7.61743651 12.85653653 -5 12 C-3.37667665 9.61211213 -3.37667665 9.61211213 -3 7 C-2.34 6.34 -1.68 5.68 -1 5 C-0.35232207 2.42938689 -0.35232207 2.42938689 0 0 Z " fill="#181818" transform="translate(576,666)"/>
<path d="M0 0 C1.22589844 0.15275391 1.22589844 0.15275391 2.4765625 0.30859375 C3.41628906 0.43427734 3.41628906 0.43427734 4.375 0.5625 C4.375 1.2225 4.375 1.8825 4.375 2.5625 C5.014375 2.85125 5.65375 3.14 6.3125 3.4375 C8.375 4.5625 8.375 4.5625 9.375 6.5625 C9.92224071 12.25380337 8.96833707 15.12367185 5.375 19.5625 C1.63251973 21.43374014 -2.55878774 21.22489909 -6.625 20.5625 C-10.28870556 17.24771878 -10.88558986 14.19753689 -11.125 9.4375 C-10.98981323 5.97983845 -10.84124299 4.85803208 -8.75 2 C-5.40105295 -0.26546418 -3.97678072 -0.51130038 0 0 Z " fill="#E3E3E3" transform="translate(565.625,658.4375)"/>
<path d="M0 0 C2.99186642 1.51912597 5.08021137 3.24135945 7 6 C7.88346356 9.20747918 7.81020928 11.78281864 7 15 C5.1875 18.0625 5.1875 18.0625 2 20 C-1.73751779 20.56199173 -5.27707937 20.6915642 -9 20 C-12.40219021 17.26165178 -13.78399956 14.41943144 -14.4375 10.125 C-13.82244681 5.7317629 -12.08098355 4.15434031 -9 1 C-5.79745853 -0.60127074 -3.54685436 -0.40701607 0 0 Z " fill="#E7E8E8" transform="translate(480,633)"/>
<path d="M0 0 C2.92791253 1.19518305 5.02962127 2.50380173 7 5 C7.9197237 8.18681332 7.82169198 10.79765247 7 14 C5.25670488 17.06031005 3.20105796 19.39947102 0 21 C-3.3125 21.4375 -3.3125 21.4375 -7 21 C-10.90407244 17.77144137 -12.86707157 14.15837629 -13.4375 9.1875 C-13.38347254 5.4798656 -13.03761463 5.04403664 -10.4375 2 C-6.39316109 -0.35306991 -4.59845024 -0.80674566 0 0 Z " fill="#F0F0F0" transform="translate(412,385)"/>
<path d="M0 0 C3.0625 1.9375 3.0625 1.9375 5 5 C5.94728069 9.67719839 5.66588027 12.93459157 3.125 17 C-0.4213179 20.33771096 -3.09423216 20.33450098 -7.8046875 20.2890625 C-10 20 -10 20 -12.5 18.1875 C-14.92406243 14.65240896 -15.47723255 11.278504 -15.3984375 7.0078125 C-14.82700178 4.12822467 -13.28792049 2.50538773 -10.9140625 0.8515625 C-7.25919976 -0.77447847 -3.87731325 -0.8624171 0 0 Z " fill="#E7E7E7" transform="translate(414,566)"/>
<path d="M0 0 C3.125 1.375 3.125 1.375 5 4 C5.92800596 8.95772552 5.77759826 12.72992284 3.125 17.0625 C0.38999766 19.5561786 -0.58151819 19.9526247 -4.3125 20.375 C-8.92906502 19.90551881 -10.08979254 18.49224896 -13 15 C-13.66 14.34 -14.32 13.68 -15 13 C-15.54649221 8.2377107 -15.68081954 6.08931127 -13.125 2 C-8.71335174 -0.82345488 -5.09847087 -0.86088934 0 0 Z " fill="#EFEFEF" transform="translate(481,318)"/>
<path d="M0 0 C3.61693148 0.05200061 5.6435724 0.52626368 8.375 2.9375 C10.46500675 5.40009848 11.24785967 7.27611442 11.4375 10.5 C10.7602484 14.76668508 9.87629171 16.46381981 6.8125 19.4375 C4.4728331 20.60733345 2.97858473 20.6036241 0.375 20.625 C-0.79869141 20.64626953 -0.79869141 20.64626953 -1.99609375 20.66796875 C-4.1875 20.4375 -4.1875 20.4375 -7.1875 18.4375 C-7.1875 17.4475 -7.1875 16.4575 -7.1875 15.4375 C-7.8475 15.4375 -8.5075 15.4375 -9.1875 15.4375 C-9.1875 12.1375 -9.1875 8.8375 -9.1875 5.4375 C-8.5275 5.4375 -7.8675 5.4375 -7.1875 5.4375 C-6.7234375 4.4784375 -6.7234375 4.4784375 -6.25 3.5 C-4.55644008 0.21250134 -3.62883176 0.20058869 0 0 Z " fill="#E3E3E3" transform="translate(720.1875,565.5625)"/>
<path d="M0 0 C2.97869342 1.32521462 3.83252087 2.33233338 6 5 C6.98033559 9.05205375 6.40189859 12.11965071 4.6875 15.875 C2.06840585 19.17311856 0.37601682 19.95068632 -3.8125 20.5 C-7.1265882 20.39586044 -8.97716398 19.72578694 -11.5 17.5625 C-13.76922879 14.9388985 -14.4738184 12.8910566 -14.6875 9.4375 C-14.42723973 6.0880635 -13.92815995 4.88644637 -12.0625 1.9375 C-7.92202879 -0.68198179 -4.77148549 -1.02126532 0 0 Z " fill="#E4E4E5" transform="translate(750,476)"/>
<path d="M0 0 C6.09067026 -0.42004622 9.10816881 -0.0566405 14 4 C15.74465448 7.48930896 15.56450552 11.19286977 15 15 C13 18.0625 13 18.0625 10 20 C6.41805862 20.6667376 3.17282821 20.38037672 -0.3125 19.25 C-2.49562146 17.63287299 -3.69678002 16.41095697 -5 14 C-5.54003936 9.04963918 -5.11295959 5.9510641 -2 2 C-1.34 2 -0.68 2 0 2 C0 1.34 0 0.68 0 0 Z " fill="#EBEBEB" transform="translate(649,633)"/>
<path d="M0 0 C0 0.66 0 1.32 0 2 C0.9590625 2.4640625 0.9590625 2.4640625 1.9375 2.9375 C4 4 4 4 5 5 C5.48686304 8.72850807 5.5580073 12.27814547 5 16 C2.4227448 18.83498072 0.85073262 19.87012403 -3.00390625 20.140625 C-7.72609544 19.81804661 -10.59955128 18.40044872 -14 15 C-15.57455739 11.85088521 -15.34799118 9.47991184 -15 6 C-11.2703383 -0.83771312 -7.37787318 -0.77360224 0 0 Z " fill="#EFEFEF" transform="translate(388,476)"/>
<path d="M0 0 C10.09273402 -0.62644556 10.09273402 -0.62644556 13.625 1.8125 C16.16788089 5.85799233 16.56763375 9.29674892 16 14 C13.2897793 17.35211508 11.7258279 18.6662314 7.515625 19.48046875 C3.32593502 19.7097861 0.83677262 19.59769473 -2.625 17.125 C-4.56374773 12.71875516 -4.33145348 8.74162611 -4 4 C-2.68 3.34 -1.36 2.68 0 2 C0 1.34 0 0.68 0 0 Z " fill="#EEEFEF" transform="translate(559,293)"/>
<path d="M0 0 C4.56944444 2.13888889 4.56944444 2.13888889 6 5 C6.61885492 9.99504325 6.75635505 13.7800725 4.0625 18.125 C-0.02570996 20.62798569 -3.31739633 20.97153085 -8 20 C-10.50160818 18.12379387 -11.61945652 16.76108697 -13 14 C-13.65157772 9.26209912 -13.65620107 6.00480788 -11 1.9375 C-7.15616363 -0.54497766 -4.4548698 -0.84597527 0 0 Z " fill="#ECECEC" transform="translate(724,385)"/>
<path d="M0 0 C3.20879247 2.03005238 4.62927537 3.42299447 5.5078125 7.16015625 C5.85064622 11.62444754 5.4083164 13.48698708 2.5625 17.0625 C-0.78408777 19.34390306 -3.94836018 19.73526805 -7.94140625 19.47265625 C-10 19 -10 19 -12.5625 17.0625 C-14.47279903 12.9927325 -14.68143132 9.42930358 -14 5 C-13.1640625 2.78515625 -13.1640625 2.78515625 -12 1 C-7.92218003 -0.35927332 -4.25929481 -0.63404564 0 0 Z " fill="#F1F2F2" transform="translate(659,318)"/>
<path d="M0 0 C0.33 0 0.66 0 1 0 C0.9278125 1.21042969 0.855625 2.42085938 0.78125 3.66796875 C-0.3722057 25.42942174 -0.0921848 47.21602266 0 69 C-3.99184263 63.01223606 -4.30387045 56.45682141 -4.265625 49.46875 C-4.26753845 48.67456665 -4.2694519 47.8803833 -4.27142334 47.06213379 C-4.27277648 45.38809897 -4.26914133 43.71405335 -4.26074219 42.04003906 C-4.25014486 39.53425205 -4.26060768 37.02920087 -4.2734375 34.5234375 C-4.29906107 7.20870891 -4.29906107 7.20870891 0 0 Z " fill="#3F3E3E" transform="translate(308,446)"/>
<path d="M0 0 C0.33 0 0.66 0 1 0 C1.07009071 16.34198463 1.12298843 32.68392047 1.15543652 49.0260191 C1.17090339 56.61399549 1.1919894 64.20187848 1.22631836 71.78979492 C1.25622631 78.40366564 1.27557632 85.01746871 1.28226548 91.63140517 C1.28617541 95.13324313 1.29536031 98.63488753 1.31719017 102.13666344 C1.34136581 106.04646804 1.34196909 109.95608354 1.34057617 113.8659668 C1.35675491 115.60629181 1.35675491 115.60629181 1.3732605 117.3817749 C1.36913651 118.44883163 1.36501251 119.51588837 1.36076355 120.61528015 C1.36352893 121.53983851 1.36629431 122.46439688 1.36914349 123.41697216 C0.92562352 126.52043858 -0.34138168 128.3700666 -2 131 C-2.36068502 134.35292008 -2.36068502 134.35292008 -2.1875 137.8125 C-2.14689453 139.55466797 -2.14689453 139.55466797 -2.10546875 141.33203125 C-2.07066406 142.21246094 -2.03585937 143.09289062 -2 144 C-2.99 144 -3.98 144 -5 144 C-6.90822667 138.27531998 -5.44177139 131.42615864 -3 126 C-1.515 125.505 -1.515 125.505 0 125 C0 83.75 0 42.5 0 0 Z " fill="#353434" transform="translate(555,353)"/>
<path d="M0 0 C2.31 0.33 4.62 0.66 7 1 C7 1.66 7 2.32 7 3 C-0.26 3.33 -7.52 3.66 -15 4 C-15 4.33 -15 4.66 -15 5 C-15.91942383 5.11275269 -15.91942383 5.11275269 -16.85742188 5.2277832 C-19.73895168 5.58420279 -22.61959604 5.94709069 -25.5 6.3125 C-26.54486572 6.44495117 -27.58973145 6.57740234 -28.66625977 6.71386719 C-36.03876225 7.67567014 -43.27095416 8.93609864 -50.52734375 10.546875 C-54.6420644 11.08377893 -57.91533171 10.66359046 -62 10 C-44.69969316 0.51536119 -19.08313548 1.45097892 0 1 C0 0.67 0 0.34 0 0 Z " fill="#2D2D2C" transform="translate(571,215)"/>
<path d="M0 0 C0.66 0 1.32 0 2 0 C1.38659192 4.08440015 0.03146933 7.22330501 -1.875 10.875 C-3.59455115 14.21560772 -5.27763947 17.51681517 -6.6875 21 C-7.87828958 23.72180475 -8.9921791 25.81758598 -11 28 C-11.66 28 -12.32 28 -13 28 C-15.9394067 28.58788134 -18.36112908 29.58631915 -21 31 C-18.7501378 27.03907756 -16.14807778 23.56116518 -13.3125 20 C-8.89204619 14.39048976 -5.16320028 8.56742671 -1.59375 2.38671875 C-1.0678125 1.59910156 -0.541875 0.81148437 0 0 Z " fill="#DCDCDC" transform="translate(793,624)"/>
<path d="M0 0 C2.76387 4.145805 2.98578914 8.05487781 3.625 12.9375 C3.75543701 13.93354248 3.88587402 14.92958496 4.02026367 15.95581055 C5.01606314 24.40873843 5.2938427 32.80531949 5.3125 41.3125 C5.31781738 42.54025146 5.32313477 43.76800293 5.32861328 45.03295898 C5.25846721 53.74153279 5.25846721 53.74153279 3 56 C2.98018066 55.18023682 2.96036133 54.36047363 2.93994141 53.51586914 C2.43535578 32.86892374 2.43535578 32.86892374 0.41015625 12.328125 C-0.102417 8.16895921 -0.15209688 4.18266414 0 0 Z " fill="#111111" transform="translate(788,441)"/>
<path d="M0 0 C0.5676709 0.24580811 1.1353418 0.49161621 1.72021484 0.74487305 C-1.34840241 3.88757478 -4.42670192 7.0203611 -7.5144043 10.14428711 C-8.56368112 11.20866261 -9.61025127 12.27571342 -10.65405273 13.34545898 C-12.15378725 14.88152911 -13.66295197 16.4077553 -15.17431641 17.93237305 C-16.53327026 19.31489258 -16.53327026 19.31489258 -17.91967773 20.7253418 C-20.27978516 22.74487305 -20.27978516 22.74487305 -23.27978516 22.74487305 C-20.85706643 17.11032608 -16.16154183 13.21746612 -11.90478516 8.93237305 C-11.04111328 8.03583008 -10.17744141 7.13928711 -9.28759766 6.21557617 C-8.45228516 5.37317383 -7.61697266 4.53077148 -6.75634766 3.6628418 C-5.99402832 2.88706787 -5.23170898 2.11129395 -4.44628906 1.31201172 C-2.27978516 -0.25512695 -2.27978516 -0.25512695 0 0 Z " fill="#242424" transform="translate(426.27978515625,324.255126953125)"/>
<path d="M0 0 C7.41437534 -0.1031366 14.6564425 -0.10153363 22 1 C22.33 1.33 22.66 1.66 23 2 C25.44608998 2.15980437 27.86731058 2.25929447 30.31640625 2.31640625 C31.41298805 2.3475779 31.41298805 2.3475779 32.53172302 2.37937927 C34.87521656 2.44495024 37.21882539 2.50379432 39.5625 2.5625 C41.14779855 2.60567808 42.73308529 2.64929213 44.31835938 2.69335938 C48.21212037 2.8006392 52.10599772 2.9018849 56 3 C56 3.33 56 3.66 56 4 C42.59481175 5.07218973 29.56235566 5.08519796 16.1875 3.6875 C14.92462158 3.55754639 13.66174316 3.42759277 12.3605957 3.29370117 C3.40876064 2.27250709 3.40876064 2.27250709 0 0 Z " fill="#10100F" transform="translate(525,711)"/>
<path d="M0 0 C1 2 1 2 0.59448242 3.82836914 C0.35060791 4.55660889 0.1067334 5.28484863 -0.14453125 6.03515625 C-0.54188477 7.25041992 -0.54188477 7.25041992 -0.94726562 8.49023438 C-1.37555664 9.76350586 -1.37555664 9.76350586 -1.8125 11.0625 C-3.9036634 17.33599021 -5.66218215 23.51974087 -7 30 C-9.76802738 25.84795893 -8.92323769 22.67429432 -8 18 C-6.77483368 13.29774222 -5.42125646 8.64717809 -4 4 C-3.34 4 -2.68 4 -2 4 C-1.34 2.68 -0.68 1.36 0 0 Z " fill="#434242" transform="translate(351,409)"/>
<path d="M0 0 C0 3 0 3 -1.46875 4.80932617 C-2.1390625 5.46392822 -2.809375 6.11853027 -3.5 6.79296875 C-4.221875 7.50517578 -4.94375 8.21738281 -5.6875 8.95117188 C-6.450625 9.68916016 -7.21375 10.42714844 -8 11.1875 C-9.1446875 12.31188477 -9.1446875 12.31188477 -10.3125 13.45898438 C-12.20180839 15.31286823 -14.09775206 17.15941069 -16 19 C-16.99 18.67 -17.98 18.34 -19 18 C-5.22151899 1.74050633 -5.22151899 1.74050633 0 0 Z " fill="#303030" transform="translate(730,641)"/>
<path d="M0 0 C0.66 0.33 1.32 0.66 2 1 C-7.9 10.9 -17.8 20.8 -28 31 C-28.66 30.67 -29.32 30.34 -30 30 C-29.57589844 29.5875 -29.15179688 29.175 -28.71484375 28.75 C-25.66513204 25.74720693 -22.73697038 22.72897347 -20 19.4375 C-14.6589253 13.21034839 -8.41818885 7.80686956 -2.37939453 2.27172852 C-1.57317434 1.52843631 -0.77539484 0.77539484 0 0 Z " fill="#DDDEDD" transform="translate(317,283)"/>
<path d="M0 0 C11.2872939 -0.65328389 21.12210704 1.23736052 32 4 C31.34 4.66 30.68 5.32 30 6 C27.88037109 5.98339844 27.88037109 5.98339844 25.2734375 5.609375 C24.32339844 5.47660156 23.37335938 5.34382812 22.39453125 5.20703125 C21.39808594 5.05621094 20.40164063 4.90539062 19.375 4.75 C18.40175781 4.61464844 17.42851562 4.47929688 16.42578125 4.33984375 C10.84200181 3.53571939 5.44501871 2.47442312 0 1 C0 0.67 0 0.34 0 0 Z " fill="#1E1E1E" transform="translate(456,812)"/>
<path d="M0 0 C0.33 0 0.66 0 1 0 C1.08725659 4.2290362 1.1404789 8.45784012 1.1875 12.6875 C1.21263672 13.88568359 1.23777344 15.08386719 1.26367188 16.31835938 C1.27333984 17.47529297 1.28300781 18.63222656 1.29296875 19.82421875 C1.3086792 20.88729248 1.32438965 21.95036621 1.34057617 23.0456543 C0.95268754 26.41041437 -0.18252238 28.1862228 -2 31 C-2.36068502 34.35292008 -2.36068502 34.35292008 -2.1875 37.8125 C-2.16042969 38.97394531 -2.13335938 40.13539063 -2.10546875 41.33203125 C-2.07066406 42.21246094 -2.03585937 43.09289062 -2 44 C-2.99 44 -3.98 44 -5 44 C-6.90822667 38.27531998 -5.44177139 31.42615864 -3 26 C-2.01 25.67 -1.02 25.34 0 25 C0 16.75 0 8.5 0 0 Z " fill="#333232" transform="translate(555,453)"/>
<path d="M0 0 C-8.33310742 5.55540495 -22.49639248 2.93470224 -32.25 2.5625 C-33.78513402 2.50912237 -35.3202904 2.45638387 -36.85546875 2.40429688 C-40.5705987 2.27688018 -44.28535333 2.14088056 -48 2 C-48 1.67 -48 1.34 -48 1 C-43.57504611 0.85447541 -39.15000088 0.7122407 -34.72485352 0.57275391 C-33.22677926 0.52510462 -31.72873087 0.47663312 -30.23071289 0.42724609 C-20.14900566 0.09558872 -10.08755245 -0.06645656 0 0 Z " fill="#232222" transform="translate(596,712)"/>
<path d="M0 0 C0.66 0.33 1.32 0.66 2 1 C-4.6 7.6 -11.2 14.2 -18 21 C-18.66 20.01 -19.32 19.02 -20 18 C-18.44395612 16.38957012 -16.87987244 14.78690632 -15.3125 13.1875 C-14.44238281 12.29417969 -13.57226562 11.40085937 -12.67578125 10.48046875 C-10.21321011 8.19764733 -7.89503055 6.65981752 -5 5 C-3.2958946 3.37163262 -1.61974559 1.71230248 0 0 Z " fill="#1B1B1A" transform="translate(395,286)"/>
<path d="M0 0 C4.49523394 2.3974581 8.69744323 5.08061222 12.875 8 C13.82117188 8.66 14.76734375 9.32 15.7421875 10 C18.07119401 12.06306459 18.68821279 12.96346368 19 16 C15.2462258 14.33567602 12.19222602 11.98440053 8.9375 9.5 C5.99204276 7.2572291 3.08053182 5.05368788 0 3 C0 2.01 0 1.02 0 0 Z " fill="#3D3D3E" transform="translate(690,294)"/>
<path d="M0 0 C2.31 0.33 4.62 0.66 7 1 C7 1.66 7 2.32 7 3 C6.18845459 3.02505615 5.37690918 3.0501123 4.54077148 3.07592773 C0.83954284 3.19245817 -2.86146681 3.314925 -6.5625 3.4375 C-8.47772461 3.49647461 -8.47772461 3.49647461 -10.43164062 3.55664062 C-12.29272461 3.61948242 -12.29272461 3.61948242 -14.19140625 3.68359375 C-15.32779541 3.72025146 -16.46418457 3.75690918 -17.63500977 3.79467773 C-21.13220964 4.00806706 -24.53686679 4.47801442 -28 5 C-30.6793948 5.10751986 -33.31632049 5.0470821 -36 5 C-36 4.67 -36 4.34 -36 4 C-24.17687422 1.32942554 -12.06320538 1.35996464 0 1 C0 0.67 0 0.34 0 0 Z " fill="#7F7F7F" transform="translate(571,215)"/>
<path d="M0 0 C-1 2 -1 2 -4.0625 3.0625 C-12.35394036 5.18979884 -20.48877553 5.11676985 -29 5 C-26.12372636 3.41040485 -23.65570449 2.62469548 -20.41015625 2.1484375 C-19.54326172 2.01953125 -18.67636719 1.890625 -17.78320312 1.7578125 C-16.88537109 1.63148438 -15.98753906 1.50515625 -15.0625 1.375 C-13.72155273 1.17390625 -13.72155273 1.17390625 -12.35351562 0.96875 C-8.18708209 0.36249835 -4.21827291 -0.07006322 0 0 Z " fill="#131413" transform="translate(625,741)"/>
<path d="M0 0 C-2.64 0.66 -5.28 1.32 -8 2 C-8 2.66 -8 3.32 -8 4 C-14.69116911 7.06085395 -20.63904818 8.68676801 -28 9 C-25.37775919 6.37775919 -22.87883551 5.76670899 -19.375 4.5625 C-15.3351716 3.17048761 -11.32832211 1.74975549 -7.375 0.125 C-4 -1 -4 -1 0 0 Z " fill="#4A4A4A" transform="translate(508,280)"/>
<path d="M0 0 C0.33 0 0.66 0 1 0 C1.13277344 0.61488281 1.26554688 1.22976563 1.40234375 1.86328125 C1.57894531 2.67152344 1.75554688 3.47976563 1.9375 4.3125 C2.19853516 5.51326172 2.19853516 5.51326172 2.46484375 6.73828125 C2.99886159 9.145401 2.99886159 9.145401 4 12 C7.3 12.33 10.6 12.66 14 13 C10 16 10 16 7.375 15.75 C5 15 5 15 3 14 C3 13.34 3 12.68 3 12 C2.34 12 1.68 12 1 12 C-1.11019816 9.26455793 -2.07495837 7.80580251 -1.75 4.3125 C-1 2 -1 2 0 0 Z " fill="#313030" transform="translate(710,392)"/>
<path d="M0 0 C0.796875 1.625 0.796875 1.625 1 4 C-0.5125959 6.19147753 -1.97689827 8.04280574 -3.75 10 C-4.66218782 11.04102791 -5.57366228 12.08268139 -6.484375 13.125 C-7.31453125 14.07375 -8.1446875 15.0225 -9 16 C-10.01660446 17.32071691 -11.02513181 18.64818278 -12 20 C-12.99 19.67 -13.98 19.34 -15 19 C-13.25027888 16.77061395 -11.50023195 14.54148496 -9.75 12.3125 C-9.25886719 11.68666016 -8.76773437 11.06082031 -8.26171875 10.41601562 C-5.52440413 6.93050167 -2.77506692 3.45561905 0 0 Z " fill="#1E1D1E" transform="translate(392,334)"/>
<path d="M0 0 C0.75 1.6875 0.75 1.6875 1 4 C-1.08117669 7.12176503 -2.86651634 8.91101089 -6 11 C-6.99 12.485 -6.99 12.485 -8 14 C-9.32381517 15.67423683 -10.65576661 17.34211215 -12 19 C-12.99 18.67 -13.98 18.34 -15 18 C-14.25234375 17.11957031 -13.5046875 16.23914063 -12.734375 15.33203125 C-11.73954698 14.158885 -10.74475735 12.98570618 -9.75 11.8125 C-9.25886719 11.23435547 -8.76773438 10.65621094 -8.26171875 10.06054688 C-5.45420944 6.74768589 -2.69431092 3.4063788 0 0 Z " fill="#343333" transform="translate(755,697)"/>
<path d="M0 0 C1 2 1 2 0.1875 4.9375 C-1 8 -1 8 -3 11 C-3.66 11 -4.32 11 -5 11 C-5.061875 11.721875 -5.12375 12.44375 -5.1875 13.1875 C-6.2536405 16.87798635 -8.14791164 18.49572729 -11 21 C-11.66 21.33 -12.32 21.66 -13 22 C-11.6563724 18.26178857 -9.96690187 15.32594011 -7.625 12.125 C-4.80488907 8.19215219 -2.3096333 4.24972527 0 0 Z " fill="#353536" transform="translate(761,597)"/>
<path d="M0 0 C0 3 0 3 -1.36328125 4.7265625 C-6.23787624 9.47416404 -11.33146844 13.81097447 -16.6796875 18.01953125 C-19.17504293 19.96708468 -19.17504293 19.96708468 -21 23 C-22.32 22.67 -23.64 22.34 -25 22 C-24.20078125 21.33355469 -23.4015625 20.66710937 -22.578125 19.98046875 C-14.86251232 13.51590867 -7.36498854 6.86071906 0 0 Z " fill="#D6D6D6" transform="translate(755,672)"/>
<path d="M0 0 C2.475 0.495 2.475 0.495 5 1 C5 1.66 5 2.32 5 3 C5.66 3 6.32 3 7 3 C7 3.66 7 4.32 7 5 C7.53625 5.226875 8.0725 5.45375 8.625 5.6875 C11.78500863 7.43382056 14.2676983 9.6402849 17 12 C16.01 13.485 16.01 13.485 15 15 C12.87143092 13.06629992 10.7470979 11.12827941 8.625 9.1875 C8.02171875 8.64029297 7.4184375 8.09308594 6.796875 7.52929688 C6.21679688 6.99755859 5.63671875 6.46582031 5.0390625 5.91796875 C4.50490723 5.43094482 3.97075195 4.9439209 3.42041016 4.44213867 C2 3 2 3 0 0 Z " fill="#313131" transform="translate(383,672)"/>
<path d="M0 0 C0.33 0 0.66 0 1 0 C1.81496063 21.77755906 1.81496063 21.77755906 -3 29 C-2.88918111 25.47857223 -2.75877927 21.95812436 -2.625 18.4375 C-2.5940625 17.44685547 -2.563125 16.45621094 -2.53125 15.43554688 C-2.31287503 9.95797477 -1.79049861 5.1895346 0 0 Z " fill="#1A1A19" transform="translate(791,500)"/>
<path d="M0 0 C3.58402695 1.53248049 6.02850134 3.6674601 8.8125 6.375 C9.62332031 7.14585937 10.43414063 7.91671875 11.26953125 8.7109375 C11.84058594 9.46632813 12.41164063 10.22171875 13 11 C12.6081543 13.14306641 12.6081543 13.14306641 12 15 C9.99068029 13.07141188 7.99272731 11.133102 6 9.1875 C5.42765625 8.64029297 4.8553125 8.09308594 4.265625 7.52929688 C2.78599462 6.07608846 1.38703342 4.54183626 0 3 C0 2.01 0 1.02 0 0 Z " fill="#353635" transform="translate(719,317)"/>
<path d="M0 0 C0.33 0.99 0.66 1.98 1 3 C-0.67320568 5.46827504 -2.35883277 7.70995134 -4.25 10 C-4.75402344 10.6290625 -5.25804687 11.258125 -5.77734375 11.90625 C-10.5386945 17.80482625 -10.5386945 17.80482625 -13 20 C-13.66 20 -14.32 20 -15 20 C-13.287474 15.8512019 -10.41116967 12.7812078 -7.5 9.4375 C-3.55102588 4.87578359 -3.55102588 4.87578359 0 0 Z " fill="#1B1B1B" transform="translate(781,639)"/>
<path d="M0 0 C-0.33 0.66 -0.66 1.32 -1 2 C-4.02734375 2.6328125 -4.02734375 2.6328125 -7.9375 3.125 C-8.61176025 3.20991699 -9.28602051 3.29483398 -9.98071289 3.38232422 C-15.34137771 4.01674508 -20.6108745 4.22824532 -26 4 C-18.84936987 -0.76708675 -8.37846409 -0.34043421 0 0 Z " fill="#161516" transform="translate(549,256)"/>
<path d="M0 0 C-0.33 0.66 -0.66 1.32 -1 2 C-3.8595778 2.81532187 -6.66022435 3.50456103 -9.5625 4.125 C-10.34947266 4.30675781 -11.13644531 4.48851562 -11.94726562 4.67578125 C-17.07577713 5.80041774 -21.75223544 6.18033555 -27 6 C-27 5.67 -27 5.34 -27 5 C-23.62772763 4.15535944 -20.25180079 3.32633353 -16.875 2.5 C-15.92367187 2.26152344 -14.97234375 2.02304687 -13.9921875 1.77734375 C-9.23935199 0.62214067 -4.93266691 -0.33216612 0 0 Z " fill="#131312" transform="translate(593,808)"/>
<path d="M0 0 C4.83894329 7.25841493 4.43886235 17.65459835 3 26 C2.67 26 2.34 26 2 26 C-0.29612756 8.14350797 -0.29612756 8.14350797 0 0 Z " fill="#181817" transform="translate(788,441)"/>
<path d="M0 0 C-2.55180305 3.08342869 -5.24532778 4.01684785 -9 5.25 C-10.5778125 5.78367188 -10.5778125 5.78367188 -12.1875 6.328125 C-15 7 -15 7 -18 6 C-17.34 6 -16.68 6 -16 6 C-15.67 5.01 -15.34 4.02 -15 3 C-10.274891 0.58273371 -5.28470322 -0.40651563 0 0 Z " fill="#313030" transform="translate(494,230)"/>
<path d="M0 0 C0.33 0 0.66 0 1 0 C1.55353075 16.8929385 1.55353075 16.8929385 -2 24 C-2.66 24 -3.32 24 -4 24 C-3.125 16.125 -3.125 16.125 -2 15 C-1.60056824 12.47804033 -1.24920152 9.97036344 -0.9375 7.4375 C-0.84662109 6.72658203 -0.75574219 6.01566406 -0.66210938 5.28320312 C-0.43760497 3.52261597 -0.21831603 1.76136522 0 0 Z " fill="#3E3E3E" transform="translate(788,516)"/>
<path d="M0 0 C1.32 0.33 2.64 0.66 4 1 C4 1.66 4 2.32 4 3 C4.66 3.33 5.32 3.66 6 4 C5.34 4.66 4.68 5.32 4 6 C3.34 6 2.68 6 2 6 C-0.9394067 6.58788134 -3.36112908 7.58631915 -6 9 C-4.16172132 5.84866512 -2.24027294 2.88035092 0 0 Z " fill="#DBDCDB" transform="translate(778,646)"/>
<path d="M0 0 C5.28776943 0.33048559 9.24100622 3.48352195 13 7 C13 7.66 13 8.32 13 9 C7.99971686 7.65846062 3.80932497 5.51629997 0 2 C0 1.34 0 0.68 0 0 Z " fill="#1F1F1F" transform="translate(339,761)"/>
<path d="M0 0 C9.24 0 18.48 0 28 0 C28 0.33 28 0.66 28 1 C9.46166807 3.54759899 9.46166807 3.54759899 3 3 C2.01 2.01 1.02 1.02 0 0 Z " fill="#5A5959" transform="translate(589,745)"/>
<path d="M0 0 C5.64102564 0.8974359 5.64102564 0.8974359 8.1875 1.625 C10.22346469 2.20433282 10.22346469 2.20433282 13 1 C13 1.66 13 2.32 13 3 C15.64 3 18.28 3 21 3 C21 3.99 21 4.98 21 6 C13.50559651 5.5003731 7.04349737 3.56235522 0 1 C0 0.67 0 0.34 0 0 Z " fill="#4A4A4A" transform="translate(498,688)"/>
<path d="M0 0 C2.9882675 2.58323124 4.49429547 5.55535237 6.25 9.0625 C6.79140625 10.12597656 7.3328125 11.18945312 7.890625 12.28515625 C8.25671875 13.18105469 8.6228125 14.07695313 9 15 C8.67 15.66 8.34 16.32 8 17 C7.34 17 6.68 17 6 17 C5.5875 16.01 5.175 15.02 4.75 14 C3.24908224 10.45696818 1.50535145 7.08052133 -0.328125 3.69921875 C-0.54984375 3.13847656 -0.7715625 2.57773437 -1 2 C-0.67 1.34 -0.34 0.68 0 0 Z " fill="#343434" transform="translate(357,578)"/>
<path d="M0 0 C3.58513106 1.62184501 6.58992323 3.79256239 9.75 6.125 C11.22726562 7.21167969 11.22726562 7.21167969 12.734375 8.3203125 C13.48203125 8.87460937 14.2296875 9.42890625 15 10 C14.67 10.99 14.34 11.98 14 13 C13.15695312 12.36191406 12.31390625 11.72382813 11.4453125 11.06640625 C10.33860532 10.23168643 9.23183099 9.39705563 8.125 8.5625 C7.56941406 8.14162109 7.01382813 7.72074219 6.44140625 7.28710938 C3.34907114 4.94254056 3.34907114 4.94254056 0 3 C0 2.01 0 1.02 0 0 Z " fill="#181818" transform="translate(685,310)"/>
<path d="M0 0 C3.92488093 3.70060202 7.02215543 7.4906925 10 12 C10 12.66 10 13.32 10 14 C10.66 14 11.32 14 12 14 C12 14.66 12 15.32 12 16 C7.98869439 14.47317422 6.21413108 11.9985939 3.75 8.5625 C2.69039063 7.11037109 2.69039063 7.11037109 1.609375 5.62890625 C0 3 0 3 0 0 Z " fill="#1B1B1B" transform="translate(353,634)"/>
<path d="M0 0 C5.65611463 -0.56561146 9.22642128 1.28608722 14 4 C14 4.99 14 5.98 14 7 C8.70139194 5.7023817 4.65474354 3.84984298 0 1 C0 0.67 0 0.34 0 0 Z " fill="#393938" transform="translate(465,674)"/>
<path d="M0 0 C3.11728368 1.36508501 5.08663738 2.86919698 7.3125 5.4375 C7.84488281 6.03433594 8.37726563 6.63117187 8.92578125 7.24609375 C9.45751953 8.11427734 9.45751953 8.11427734 10 9 C9.67 9.99 9.34 10.98 9 12 C7.49105554 10.57189185 5.99307655 9.13218981 4.5 7.6875 C3.6646875 6.88699219 2.829375 6.08648438 1.96875 5.26171875 C0 3 0 3 0 0 Z " fill="#282827" transform="translate(413,633)"/>
<path d="M0 0 C1.08667969 0.02707031 2.17335938 0.05414063 3.29296875 0.08203125 C4.54013672 0.13423828 4.54013672 0.13423828 5.8125 0.1875 C5.8125 0.5175 5.8125 0.8475 5.8125 1.1875 C2.1825 1.8475 -1.4475 2.5075 -5.1875 3.1875 C-6.23726964 6.33680893 -6.28881595 8.57564456 -6.25 11.875 C-6.24097656 12.86886719 -6.23195313 13.86273438 -6.22265625 14.88671875 C-6.21105469 15.64597656 -6.19945312 16.40523438 -6.1875 17.1875 C-6.8475 16.8575 -7.5075 16.5275 -8.1875 16.1875 C-8.70703125 13.3515625 -8.70703125 13.3515625 -9 9.8125 C-9.16435547 8.06839844 -9.16435547 8.06839844 -9.33203125 6.2890625 C-9.1875 3.1875 -9.1875 3.1875 -8.0859375 1.28515625 C-5.33859632 -0.30332703 -3.14498371 -0.10145109 0 0 Z " fill="#717171" transform="translate(652.1875,316.8125)"/>
<path d="M0 0 C4.94123785 1.11877083 7.15100727 1.85601057 10 6 C11.2684375 6.495 11.2684375 6.495 12.5625 7 C15 8 15 8 16.3125 10.125 C16.6528125 11.053125 16.6528125 11.053125 17 12 C12.66498025 10.52818439 9.28143997 8.2017333 5.6875 5.4375 C4.86282227 4.8197168 4.86282227 4.8197168 4.02148438 4.18945312 C2.65866955 3.1550682 1.32624296 2.08087744 0 1 C0 0.67 0 0.34 0 0 Z " fill="#444444" transform="translate(408,694)"/>
<path d="M0 0 C0.66 0 1.32 0 2 0 C1.39254603 4.85963179 -0.72758967 8.7405518 -3 13 C-4.32 13 -5.64 13 -7 13 C-5.54331217 10.03216871 -3.98767914 7.13584687 -2.375 4.25 C-1.92898438 3.45078125 -1.48296875 2.6515625 -1.0234375 1.828125 C-0.68570313 1.22484375 -0.34796875 0.6215625 0 0 Z " fill="#B1B1B0" transform="translate(793,624)"/>
<path d="M0 0 C0.66 0.33 1.32 0.66 2 1 C-1.34003602 5.32239956 -4.32751069 8.17477391 -9 11 C-9.99 10.34 -10.98 9.68 -12 9 C-8.04 6.03 -4.08 3.06 0 0 Z " fill="#3E3D3D" transform="translate(696,755)"/>
<path d="M0 0 C0.33 0 0.66 0 1 0 C1.59551568 5.71695055 0.40162446 8.69983599 -2.7109375 13.49609375 C-3.13632812 13.99238281 -3.56171875 14.48867188 -4 15 C-4.66 15 -5.32 15 -6 15 C-4.36041242 9.76727367 -2.61047965 4.84803364 0 0 Z " fill="#363636" transform="translate(790,635)"/>
<path d="M0 0 C2.50719458 2.32649587 4.32183601 4.82681521 6.1875 7.6875 C6.71730469 8.49574219 7.24710937 9.30398438 7.79296875 10.13671875 C8.39044922 11.05904297 8.39044922 11.05904297 9 12 C8.67 12.66 8.34 13.32 8 14 C7.34 14 6.68 14 6 14 C4.4921875 11.953125 4.4921875 11.953125 2.875 9.25 C2.33617187 8.36828125 1.79734375 7.4865625 1.2421875 6.578125 C0 4 0 4 0 0 Z " fill="#303030" transform="translate(370,602)"/>
<path d="M0 0 C-2.67796972 3.46560787 -5.83662716 4.08264666 -10 5 C-13.4375 5.125 -13.4375 5.125 -16 5 C-11.74719134 0.74719134 -5.8758621 -0.44068966 0 0 Z " fill="#383837" transform="translate(626,797)"/>
<path d="M0 0 C-3.02734375 0.68359375 -3.02734375 0.68359375 -6.0546875 1.3671875 C-8.20719964 1.90474428 -8.20719964 1.90474428 -10 4 C-12.3828125 4.1953125 -12.3828125 4.1953125 -15.125 4.125 C-16.49011719 4.09792969 -16.49011719 4.09792969 -17.8828125 4.0703125 C-18.58148438 4.04710937 -19.28015625 4.02390625 -20 4 C-14.13569716 0.09046477 -6.90383996 -2.00482689 0 0 Z " fill="#504F4F" transform="translate(530,275)"/>
<path d="M0 0 C1.03115279 3.26913624 0.9638984 5.86041348 0.5625 9.25 C0.46066406 10.14203125 0.35882813 11.0340625 0.25390625 11.953125 C0.12822266 12.96632813 0.12822266 12.96632813 0 14 C-0.99 14 -1.98 14 -3 14 C-2.58846263 9.02906176 -2.20399168 4.55491614 0 0 Z " fill="#3A3939" transform="translate(361,422)"/>
<path d="M0 0 C1.49828872 3.88235819 0.43110582 6.43449288 -0.9375 10.25 C-1.31777344 11.32765625 -1.69804687 12.4053125 -2.08984375 13.515625 C-2.39019531 14.33546875 -2.69054687 15.1553125 -3 16 C-4.17658961 12.47023118 -3.79790695 10.51987603 -3.1875 6.875 C-3.01605469 5.79992187 -2.84460938 4.72484375 -2.66796875 3.6171875 C-2.44753906 2.75351562 -2.22710937 1.88984375 -2 1 C-1.34 0.67 -0.68 0.34 0 0 Z " fill="#212020" transform="translate(317,407)"/>
<path d="M0 0 C0 0.66 0 1.32 0 2 C-1.89385437 2.50744423 -3.79018666 3.00564574 -5.6875 3.5 C-6.74324219 3.7784375 -7.79898437 4.056875 -8.88671875 4.34375 C-11.71142672 4.9391715 -14.12836708 5.12786492 -17 5 C-14.46394931 2.46394931 -12.53123444 2.20749627 -9.0625 1.375 C-8.00160156 1.11460937 -6.94070313 0.85421875 -5.84765625 0.5859375 C-3 0 -3 0 0 0 Z " fill="#0E0E0E" transform="translate(517,278)"/>
<path d="M0 0 C6.0546875 -0.1953125 6.0546875 -0.1953125 8 0 C8.66 0.66 9.32 1.32 10 2 C7.43106162 3.28446919 5.23423663 3.32977144 2.375 3.5625 C1.37210938 3.64628906 0.36921875 3.73007812 -0.6640625 3.81640625 C-1.43492187 3.87699219 -2.20578125 3.93757812 -3 4 C-2.67 3.34 -2.34 2.68 -2 2 C-1.34 2 -0.68 2 0 2 C0 1.34 0 0.68 0 0 Z " fill="#D1D2D0" transform="translate(649,633)"/>
<path d="M0 0 C1.44207941 2.88415883 1.09394887 5.41721528 1.0625 8.625 C1.05347656 9.81351562 1.04445313 11.00203125 1.03515625 12.2265625 C1.02355469 13.14179688 1.01195312 14.05703125 1 15 C0.01 15 -0.98 15 -2 15 C-3.00322648 11.99032056 -3.03098357 10.5759723 -2.6875 7.5 C-2.60886719 6.7265625 -2.53023437 5.953125 -2.44921875 5.15625 C-2 3 -2 3 0 0 Z " fill="#6A6A6A" transform="translate(552,482)"/>
<path d="M0 0 C0.33 0 0.66 0 1 0 C1 5.94 1 11.88 1 18 C0.01 18.33 -0.98 18.66 -2 19 C-2.24794402 12.4294834 -1.32388229 6.43028541 0 0 Z " fill="#545352" transform="translate(309,430)"/>
<path d="M0 0 C1.7290774 -0.02725341 3.45828176 -0.04650987 5.1875 -0.0625 C6.15042969 -0.07410156 7.11335937 -0.08570313 8.10546875 -0.09765625 C10.85576513 -0.00486622 13.32479591 0.37888315 16 1 C16 1.66 16 2.32 16 3 C12.7 3 9.4 3 6 3 C6 2.67 6 2.34 6 2 C3.03 1.505 3.03 1.505 0 1 C0 0.67 0 0.34 0 0 Z " fill="#282828" transform="translate(576,272)"/>
<path d="M0 0 C1.27310312 0.93441535 2.543388 1.87267111 3.8125 2.8125 C4.52019531 3.33457031 5.22789062 3.85664062 5.95703125 4.39453125 C7.78531393 5.83128877 9.39896688 7.31815763 11 9 C5.95030484 8.55443866 3.52381313 6.44186399 0 3 C0 2.01 0 1.02 0 0 Z " fill="#3C3C3D" transform="translate(325,748)"/>
<path d="M0 0 C0.66 0.99 1.32 1.98 2 3 C0.8803014 4.00593243 -0.2459412 5.0045849 -1.375 6 C-2.00148438 6.556875 -2.62796875 7.11375 -3.2734375 7.6875 C-5 9 -5 9 -7 9 C-5.44499019 5.18315774 -2.96404505 2.80804268 0 0 Z " fill="#323434" transform="translate(410,338)"/>
<path d="M0 0 C-5.07581724 2.62542271 -9.53177584 3.26119068 -15.1875 3.5625 C-16.31188477 3.62727539 -16.31188477 3.62727539 -17.45898438 3.69335938 C-19.30578375 3.79922685 -21.15286834 3.9000976 -23 4 C-19.75873975 1.07290446 -17.75647707 0.67521058 -13.4375 0.875 C-8.74336252 1.06607751 -4.67342679 -0.12630883 0 0 Z " fill="#A2A2A2" transform="translate(583,809)"/>
<path d="M0 0 C-1.50223584 4.20626034 -4.28550034 5.73900021 -8 8 C-8.66 7.67 -9.32 7.34 -10 7 C-8.90536178 5.82438854 -7.79892814 4.6597511 -6.6875 3.5 C-6.07261719 2.8503125 -5.45773437 2.200625 -4.82421875 1.53125 C-3 0 -3 0 0 0 Z " fill="#363535" transform="translate(740,718)"/>
<path d="M0 0 C1.43836751 0.11458693 2.87570966 0.24209116 4.3125 0.375 C5.51326172 0.47941406 5.51326172 0.47941406 6.73828125 0.5859375 C9 1 9 1 12 3 C6.96488101 4.0070238 3.76052962 3.97387813 -1 2 C-0.67 1.34 -0.34 0.68 0 0 Z " fill="#3E3E3E" transform="translate(509,706)"/>
<path d="M0 0 C3.55778921 3.55778921 3.95168196 8.64709495 4.125 13.5 C4.08375 14.325 4.0425 15.15 4 16 C0.48766061 10.73149092 -0.25153688 6.28842188 0 0 Z " fill="#131212" transform="translate(783,420)"/>
<path d="M0 0 C0.66 0 1.32 0 2 0 C3.65 3.3 5.3 6.6 7 10 C6.01 10.33 5.02 10.66 4 11 C0 4.5 0 4.5 0 0 Z " fill="#19191A" transform="translate(759,366)"/>
<path d="M0 0 C1.06528748 2.73019786 1.07998186 3.79298812 0.00390625 6.578125 C-0.47175781 7.45984375 -0.94742187 8.3415625 -1.4375 9.25 C-1.91058594 10.14203125 -2.38367188 11.0340625 -2.87109375 11.953125 C-3.24363281 12.62859375 -3.61617188 13.3040625 -4 14 C-4.9113287 11.47942631 -5.08517871 10.26674385 -4.2578125 7.67578125 C-3.88398438 6.89589844 -3.51015625 6.11601562 -3.125 5.3125 C-2.75632812 4.52488281 -2.38765625 3.73726563 -2.0078125 2.92578125 C-1 1 -1 1 0 0 Z " fill="#0D0E0D" transform="translate(326,383)"/>
<path d="M0 0 C2.93200474 2.85276137 5.64315404 5.65079784 8 9 C7.67 9.66 7.34 10.32 7 11 C3.50865288 9.83621763 2.84622368 9.10501256 1 6 C0.3125 2.75 0.3125 2.75 0 0 Z " fill="#373738" transform="translate(731,352)"/>
<path d="M0 0 C2.25 -0.25 2.25 -0.25 5 0 C7.3125 2 7.3125 2 9 4 C8.67 4.99 8.34 5.98 8 7 C6.66382648 6.02471263 5.3311249 5.04466681 4 4.0625 C3.2575 3.51722656 2.515 2.97195313 1.75 2.41015625 C1.1725 1.94480469 0.595 1.47945312 0 1 C0 0.67 0 0.34 0 0 Z " fill="#383837" transform="translate(399,687)"/>
<path d="M0 0 C6.48489426 1.46827795 6.48489426 1.46827795 8.9375 4 C10 6 10 6 10 8 C6.05205855 6.32971708 3.18203882 3.8204435 0 1 C0 0.67 0 0.34 0 0 Z " fill="#383737" transform="translate(423,645)"/>
<path d="M0 0 C1.16835309 3.50505927 0.75193262 4.66433282 -0.3125 8.125 C-0.57675781 9.01445312 -0.84101563 9.90390625 -1.11328125 10.8203125 C-2 13 -2 13 -4 14 C-3.71715982 12.22773547 -3.42339502 10.457212 -3.125 8.6875 C-2.96257812 7.70136719 -2.80015625 6.71523438 -2.6328125 5.69921875 C-2 3 -2 3 0 0 Z " fill="#0F0E0F" transform="translate(365,415)"/>
<path d="M0 0 C0.33 0 0.66 0 1 0 C1.36995516 4.56278027 1.36995516 4.56278027 -0.375 6.625 C-0.91125 7.07875 -1.4475 7.5325 -2 8 C-2.99 9.485 -2.99 9.485 -4 11 C-4.66 11 -5.32 11 -6 11 C-4.55007731 6.89188572 -2.54592427 3.53144334 0 0 Z " fill="#3A3A3A" transform="translate(347,340)"/>
<path d="M0 0 C0.79664063 0.98226563 0.79664063 0.98226563 1.609375 1.984375 C4.68290067 4.575779 6.29289587 4.42204801 10.25 4.25 C11.32765625 4.21390625 12.4053125 4.1778125 13.515625 4.140625 C14.33546875 4.09421875 15.1553125 4.0478125 16 4 C15.67 4.66 15.34 5.32 15 6 C12.87527424 6.05386629 10.75016348 6.09273071 8.625 6.125 C6.84996094 6.15980469 6.84996094 6.15980469 5.0390625 6.1953125 C2 6 2 6 0 4 C0 2.68 0 1.36 0 0 Z " fill="#4A494A" transform="translate(555,307)"/>
<path d="M0 0 C0.680625 0.07863281 1.36125 0.15726562 2.0625 0.23828125 C4 0.6875 4 0.6875 7 2.6875 C5.02 3.0175 3.04 3.3475 1 3.6875 C1 3.0275 1 2.3675 1 1.6875 C-0.423125 1.996875 -0.423125 1.996875 -1.875 2.3125 C-2.90625 2.43625 -3.9375 2.56 -5 2.6875 C-5.66 2.0275 -6.32 1.3675 -7 0.6875 C-4.09583903 -0.28055366 -2.92345144 -0.37096827 0 0 Z " fill="#3C3C3C" transform="translate(616,277.3125)"/>
<path d="M0 0 C0.6875 1.6875 0.6875 1.6875 1 4 C-0.67292823 7.69805188 -2.18712958 9.55373881 -6 11 C-4.54955729 6.89041233 -2.48889248 3.56741255 0 0 Z " fill="#393939" transform="translate(771,673)"/>
<path d="M0 0 C0.91992197 3.47027476 1.37600088 6.39039151 1 10 C-1 12.375 -1 12.375 -3 14 C-2.09276387 9.31261335 -1.0452733 4.65806256 0 0 Z " fill="#3C3B3A" transform="translate(313,416)"/>
<path d="M0 0 C0.66 0 1.32 0 2 0 C1.609375 6.0546875 1.609375 6.0546875 1 8 C-0.98 8.99 -0.98 8.99 -3 10 C-2.01 6.7 -1.02 3.4 0 0 Z " fill="#353435" transform="translate(356,390)"/>
<path d="M0 0 C2.9375 -0.375 2.9375 -0.375 6 0 C7.875 1.5 7.875 1.5 9 3 C6.47946405 4.26026798 5.1457902 3.91874445 2.375 3.5625 C1.14910156 3.40974609 1.14910156 3.40974609 -0.1015625 3.25390625 C-0.72804688 3.17011719 -1.35453125 3.08632813 -2 3 C-1.34 2.01 -0.68 1.02 0 0 Z " fill="#424242" transform="translate(474,315)"/>
<path d="M0 0 C1.46067199 0.45082469 2.91848032 0.91093537 4.375 1.375 C5.18710937 1.63023437 5.99921875 1.88546875 6.8359375 2.1484375 C9 3 9 3 11 5 C10.01 5.33 9.02 5.66 8 6 C8 5.34 8 4.68 8 4 C7.4225 4.2475 6.845 4.495 6.25 4.75 C5.5075 4.8325 4.765 4.915 4 5 C1.75 3.125 1.75 3.125 0 1 C0 0.67 0 0.34 0 0 Z " fill="#403F40" transform="translate(388,788)"/>
<path d="M0 0 C1.58409994 0.11487748 3.16728963 0.24234508 4.75 0.375 C6.07257812 0.47941406 6.07257812 0.47941406 7.421875 0.5859375 C9.99066382 0.99850055 11.75841015 1.71160957 14 3 C11.69 3.33 9.38 3.66 7 4 C7 3.34 7 2.68 7 2 C5.02 2.33 3.04 2.66 1 3 C0.67 2.01 0.34 1.02 0 0 Z " fill="#CDCDCC" transform="translate(512,743)"/>
<path d="M0 0 C0.64453125 1.765625 0.64453125 1.765625 1 4 C0.07421875 5.921875 0.07421875 5.921875 -1.3125 7.75 C-1.98732422 8.67039062 -1.98732422 8.67039062 -2.67578125 9.609375 C-3.11277344 10.06828125 -3.54976562 10.5271875 -4 11 C-4.66 11 -5.32 11 -6 11 C-4.54955729 6.89041233 -2.48889248 3.56741255 0 0 Z " fill="#1A1919" transform="translate(791,624)"/>
<path d="M0 0 C0.66 0.33 1.32 0.66 2 1 C1.855625 1.825 1.71125 2.65 1.5625 3.5 C0.94746848 7.32686278 0.46439363 11.15216707 0 15 C-0.33 15 -0.66 15 -1 15 C-1.33 12.03 -1.66 9.06 -2 6 C-1.34 6 -0.68 6 0 6 C-0.2784375 4.7934375 -0.2784375 4.7934375 -0.5625 3.5625 C-0.706875 2.716875 -0.85125 1.87125 -1 1 C-0.67 0.67 -0.34 0.34 0 0 Z " fill="#535252" transform="translate(218,442)"/>
<path d="M0 0 C0.94314127 3.41610225 1.08065117 6.45134864 1 10 C0.34 10 -0.32 10 -1 10 C-1.66 11.65 -2.32 13.3 -3 15 C-4.43410153 11.21180727 -3.51009497 8.93478721 -2.0625 5.25 C-1.49208984 3.77273438 -1.49208984 3.77273438 -0.91015625 2.265625 C-0.60980469 1.51796875 -0.30945313 0.7703125 0 0 Z " fill="#5D5C5C" transform="translate(366,406)"/>
<path d="M0 0 C1.485 0.99 1.485 0.99 3 2 C5.74518321 2.24187651 5.74518321 2.24187651 8.6875 2.125 C9.68136719 2.10695313 10.67523437 2.08890625 11.69921875 2.0703125 C12.45847656 2.04710937 13.21773437 2.02390625 14 2 C13.67 2.66 13.34 3.32 13 4 C9.25879194 4.60342066 5.78319079 5 2 5 C1.34 4.34 0.68 3.68 0 3 C0 2.01 0 1.02 0 0 Z " fill="#3B3A3B" transform="translate(646,334)"/>
<path d="M0 0 C0.33 0.99 0.66 1.98 1 3 C-0.41750563 2.88490339 -1.83401169 2.75746342 -3.25 2.625 C-4.03890625 2.55539062 -4.8278125 2.48578125 -5.640625 2.4140625 C-8.085877 1.98492887 -9.84836903 1.21399362 -12 0 C-7.6835078 -0.76173392 -4.25566547 -1.16063604 0 0 Z " fill="#545354" transform="translate(619,262)"/>
<path d="M0 0 C3.02346601 -0.2519555 4.6402007 -0.20421041 7.3125 1.3125 C9 3 9 3 9 6 C5.06326356 4.68775452 2.77280706 3.08089673 0 0 Z " fill="#434443" transform="translate(445,662)"/>
<path d="M0 0 C1.485 0.99 1.485 0.99 3 2 C2.71872579 3.48117801 2.42466268 4.95993249 2.125 6.4375 C1.96257812 7.26121094 1.80015625 8.08492187 1.6328125 8.93359375 C1.42398437 9.61550781 1.21515625 10.29742188 1 11 C0.01 11.495 0.01 11.495 -1 12 C-0.67 8.04 -0.34 4.08 0 0 Z " fill="#151515" transform="translate(487,639)"/>
<path d="M0 0 C3.16717283 1.58358642 4.73268318 2.45263699 6.3125 5.6875 C6.539375 6.450625 6.76625 7.21375 7 8 C5.1875 7.8125 5.1875 7.8125 3 7 C0 2.82142857 0 2.82142857 0 0 Z " fill="#2E2E2E" transform="translate(377,615)"/>
<path d="M0 0 C1.79068573 2.6860286 2.66055791 4.6626589 3.625 7.6875 C3.88539063 8.49574219 4.14578125 9.30398438 4.4140625 10.13671875 C4.60742188 10.75160156 4.80078125 11.36648438 5 12 C3.046875 11.1796875 3.046875 11.1796875 1 10 C0.0987913 6.54536666 0 3.58088792 0 0 Z " fill="#3B3A3B" transform="translate(350,559)"/>
<path d="M0 0 C2.72957339 2.35735884 3.88893396 4.58133526 5 8 C5 8.99 5 9.98 5 11 C4.34 11 3.68 11 3 11 C0 4.5 0 4.5 0 0 Z " fill="#131212" transform="translate(770,386)"/>
<path d="M0 0 C-0.66 0 -1.32 0 -2 0 C-2.33 0.99 -2.66 1.98 -3 3 C-6.3 3.33 -9.6 3.66 -13 4 C-10.96180154 1.96180154 -9.70582202 1.32158941 -7.0625 0.3125 C-6.37285156 0.04050781 -5.68320312 -0.23148437 -4.97265625 -0.51171875 C-3 -1 -3 -1 0 0 Z " fill="#424242" transform="translate(493,285)"/>
<path d="M0 0 C4.29 0 8.58 0 13 0 C13 0.33 13 0.66 13 1 C11.20994059 1.36220266 9.41787943 1.71452469 7.625 2.0625 C6.12839844 2.35833984 6.12839844 2.35833984 4.6015625 2.66015625 C2 3 2 3 0 2 C0 1.34 0 0.68 0 0 Z " fill="#1B1B1B" transform="translate(551,814)"/>
<path d="M0 0 C0.66 0.33 1.32 0.66 2 1 C0.35 2.98 -1.3 4.96 -3 7 C-4.32 6.67 -5.64 6.34 -7 6 C-4.69 4.02 -2.38 2.04 0 0 Z " fill="#3E3D3D" transform="translate(705,748)"/>
<path d="M0 0 C-0.33 0.66 -0.66 1.32 -1 2 C-3.28515625 2.6328125 -3.28515625 2.6328125 -6.0625 3.125 C-6.98160156 3.29257812 -7.90070312 3.46015625 -8.84765625 3.6328125 C-9.91306641 3.81457031 -9.91306641 3.81457031 -11 4 C-10.67 3.01 -10.34 2.02 -10 1 C-6.59437148 0.22157062 -3.49234244 -0.09978121 0 0 Z " fill="#1B1B1A" transform="translate(625,741)"/>
<path d="M0 0 C2.4375 0.75 2.4375 0.75 5 2 C5.8125 4.125 5.8125 4.125 6 6 C0.25 4.25 0.25 4.25 -2 2 C-1.34 1.34 -0.68 0.68 0 0 Z " fill="#383838" transform="translate(441,713)"/>
<path d="M0 0 C0.33 1.32 0.66 2.64 1 4 C0.34 4 -0.32 4 -1 4 C-2.6446674 6.46326712 -2.6446674 6.46326712 -4 9 C-4.99 8.67 -5.98 8.34 -7 8 C-4.69 5.36 -2.38 2.72 0 0 Z " fill="#3B3B3B" transform="translate(747,707)"/>
<path d="M0 0 C-0.33 0.99 -0.66 1.98 -1 3 C-5.95 2.67 -10.9 2.34 -16 2 C-16 1.67 -16 1.34 -16 1 C-14.27111445 0.83044205 -12.54187557 0.66448486 -10.8125 0.5 C-9.84957031 0.4071875 -8.88664063 0.314375 -7.89453125 0.21875 C-5.24812333 0.01875156 -2.65239135 -0.03879183 0 0 Z " fill="#525151" transform="translate(600,710)"/>
<path d="M0 0 C5 2 5 2 10 4 C10 4.33 10 4.66 10 5 C3.375 5.25 3.375 5.25 0 3 C0 2.01 0 1.02 0 0 Z " fill="#434343" transform="translate(467,690)"/>
<path d="M0 0 C2.475 0.495 2.475 0.495 5 1 C5 1.66 5 2.32 5 3 C5.66 3 6.32 3 7 3 C7.33 4.65 7.66 6.3 8 8 C6.85073734 7.04578192 5.70569459 6.08647955 4.5625 5.125 C3.92441406 4.59132813 3.28632813 4.05765625 2.62890625 3.5078125 C1 2 1 2 0 0 Z " fill="#3E3E3E" transform="translate(383,672)"/>
<path d="M0 0 C0.99 0 1.98 0 3 0 C4.03039555 4.53374042 4.17766075 5.64467851 2 10 C1.34 6.7 0.68 3.4 0 0 Z " fill="#3D3C3C" transform="translate(314,553)"/>
<path d="M0 0 C0.66 0.33 1.32 0.66 2 1 C1.4375 2.9375 1.4375 2.9375 0 5 C-3.625 5.75 -3.625 5.75 -7 6 C-4.74259377 3.66475218 -2.7194239 1.81294927 0 0 Z " fill="#4C4B4A" transform="translate(682,765)"/>
<path d="M0 0 C0.33 0 0.66 0 1 0 C1.29359745 3.0534135 1.4451258 5.95743422 1 9 C-1.5 11.5625 -1.5 11.5625 -4 13 C-3.67 11.68 -3.34 10.36 -3 9 C-2.34 9 -1.68 9 -1 9 C-0.67 6.03 -0.34 3.06 0 0 Z " fill="#B7B7B7" transform="translate(486,639)"/>
<path d="M0 0 C-0.75 4.75 -0.75 4.75 -3 7 C-3.66 6.67 -4.32 6.34 -5 6 C-4.625 3.5625 -4.625 3.5625 -4 1 C-2 0 -2 0 0 0 Z " fill="#E7E8E8" transform="translate(789,636)"/>
<path d="M0 0 C2.51699845 2.51699845 3.10964078 4.57554146 4 8 C3.625 10.375 3.625 10.375 3 12 C0.50494038 9.50494038 0.64051624 8.32671112 0.375 4.875 C0.30023438 3.96492187 0.22546875 3.05484375 0.1484375 2.1171875 C0.09945312 1.41851563 0.05046875 0.71984375 0 0 Z " fill="#545454" transform="translate(226,605)"/>
<path d="M0 0 C1 2 1 2 0.1875 5 C-1 8 -1 8 -3 10 C-3.66 10 -4.32 10 -5 10 C-3.66511872 6.40608886 -2.03977277 3.24509304 0 0 Z " fill="#404040" transform="translate(761,597)"/>
<path d="M0 0 C0.33 0 0.66 0 1 0 C1.65273326 3.02454618 2.1493847 5.90026751 2 9 C-0.4375 11.5625 -0.4375 11.5625 -3 13 C-3.66 12.67 -4.32 12.34 -5 12 C-4.360625 11.319375 -3.72125 10.63875 -3.0625 9.9375 C-0.6741507 6.53591161 -0.32122847 4.09566299 0 0 Z " fill="#484849" transform="translate(419,392)"/>
<path d="M0 0 C0.33 0 0.66 0 1 0 C1.18175781 0.90492188 1.18175781 0.90492188 1.3671875 1.828125 C1.53476562 2.62734375 1.70234375 3.4265625 1.875 4.25 C2.03742188 5.03890625 2.19984375 5.8278125 2.3671875 6.640625 C2.99150075 8.96831144 3.84838542 10.89031952 5 13 C3.68 12.67 2.36 12.34 1 12 C-0.3271261 8.0186217 -0.06915913 4.14954773 0 0 Z " fill="#434342" transform="translate(398,391)"/>
<path d="M0 0 C-4.17737474 1.59138085 -7.53160785 2.21278058 -12 2 C-7.68866433 -1.5414543 -5.01745182 -3.04631004 0 0 Z " fill="#1F1E1E" transform="translate(499,268)"/>
<path d="M0 0 C2.31 0 4.62 0 7 0 C5.72807637 2.54384726 4.80051531 2.69368156 2.1875 3.6875 C1.50042969 3.95949219 0.81335938 4.23148438 0.10546875 4.51171875 C-2.29376496 5.06812731 -3.6894364 4.77364938 -6 4 C-4.35 3.67 -2.7 3.34 -1 3 C-0.67 2.01 -0.34 1.02 0 0 Z " fill="#9F9F9E" transform="translate(639,697)"/>
<path d="M0 0 C3.71888239 0.50712033 6.73454239 1.11608215 10 3 C9.67 3.99 9.34 4.98 9 6 C6.03 4.35 3.06 2.7 0 1 C0 0.67 0 0.34 0 0 Z " fill="#1A1A1B" transform="translate(449,683)"/>
<path d="M0 0 C1.875 0.3125 1.875 0.3125 4 1 C6 4 6 4 5.625 6.1875 C5.41875 6.785625 5.2125 7.38375 5 8 C4.16382818 6.8562364 3.33113541 5.70992861 2.5 4.5625 C2.0359375 3.92441406 1.571875 3.28632812 1.09375 2.62890625 C0 1 0 1 0 0 Z " fill="#2F2F2F" transform="translate(347,628)"/>
<path d="M0 0 C2.64752004 2.57784846 4.94432065 4.91648098 7 8 C4.24542282 7.62005832 3.17979426 7.1926367 1.25 5.125 C0 3 0 3 0 0 Z " fill="#181818" transform="translate(389,604)"/>
<path d="M0 0 C0.66 0 1.32 0 2 0 C1.55123384 1.64846769 1.09069512 3.29373455 0.625 4.9375 C0.36976563 5.85402344 0.11453125 6.77054688 -0.1484375 7.71484375 C-1 10 -1 10 -3 11 C-2.53199289 6.94393835 -2.12046792 3.53411321 0 0 Z " fill="#161616" transform="translate(775,569)"/>
<path d="M0 0 C0.66 0 1.32 0 2 0 C4.02350324 3.03525486 4.32124018 4.19426202 4.625 7.6875 C4.69976562 8.49574219 4.77453125 9.30398438 4.8515625 10.13671875 C4.92503906 11.05904297 4.92503906 11.05904297 5 12 C3 11 3 11 2.1484375 8.49609375 C1.89320313 7.48675781 1.63796875 6.47742188 1.375 5.4375 C1.11460937 4.42558594 0.85421875 3.41367187 0.5859375 2.37109375 C0.39257812 1.58863281 0.19921875 0.80617188 0 0 Z " fill="#171717" transform="translate(346,553)"/>
<path d="M0 0 C1.62463842 -0.05395478 3.24978541 -0.09277195 4.875 -0.125 C5.77992188 -0.14820313 6.68484375 -0.17140625 7.6171875 -0.1953125 C10 0 10 0 12 2 C11.67 2.99 11.34 3.98 11 5 C10.01 4.34 9.02 3.68 8 3 C8 2.34 8 1.68 8 1 C5.36 1 2.72 1 0 1 C0 0.67 0 0.34 0 0 Z " fill="#3A3939" transform="translate(380,475)"/>
<path d="M0 0 C2.475 0.99 2.475 0.99 5 2 C5 2.66 5 3.32 5 4 C6.32 4.33 7.64 4.66 9 5 C7.3125 5.75 7.3125 5.75 5 6 C2.25 4.1875 2.25 4.1875 0 2 C0 1.34 0 0.68 0 0 Z " fill="#383739" transform="translate(352,768)"/>
<path d="M0 0 C2.64 1.98 5.28 3.96 8 6 C6.68 6.33 5.36 6.66 4 7 C1.75 5.25 1.75 5.25 0 3 C0 2.01 0 1.02 0 0 Z " fill="#3E3E3F" transform="translate(312,737)"/>
<path d="M0 0 C2.64 0.66 5.28 1.32 8 2 C8.33 3.32 8.66 4.64 9 6 C5.06326356 4.68775452 2.77280706 3.08089673 0 0 Z " fill="#4A4A4A" transform="translate(425,706)"/>
<path d="M0 0 C3.79588866 0.54226981 5.47211993 2.20127563 8 5 C4.40142046 5 2.90548882 4.04169485 0 2 C0 1.34 0 0.68 0 0 Z " fill="#1B1B1B" transform="translate(430,670)"/>
<path d="M0 0 C2.84326464 -0.23053497 4.46145349 -0.35903101 6.875 1.25 C8 3 8 3 7.6875 5.1875 C7.460625 5.785625 7.23375 6.38375 7 7 C5.62437146 5.71034824 4.29233607 4.37310707 3 3 C3 2.34 3 1.68 3 1 C2.01 0.67 1.02 0.34 0 0 Z " fill="#393838" transform="translate(567,658)"/>
<path d="M0 0 C0.33 1.32 0.66 2.64 1 4 C-0.65 5.32 -2.3 6.64 -4 8 C-4.66 7.67 -5.32 7.34 -6 7 C-4.02 4.69 -2.04 2.38 0 0 Z " fill="#434242" transform="translate(743,624)"/>
<path d="M0 0 C2.3125 1.375 2.3125 1.375 3.125 3.5 C3.186875 4.11875 3.24875 4.7375 3.3125 5.375 C2.590625 4.900625 1.86875 4.42625 1.125 3.9375 C-1.58225226 2.43347097 -3.64944275 1.80900818 -6.6875 1.375 C-4.08385497 -0.36076335 -3.11173473 -0.72365924 0 0 Z " fill="#373737" transform="translate(413.6875,383.625)"/>
<path d="M0 0 C0.66 0.66 1.32 1.32 2 2 C1.875 3.9375 1.875 3.9375 1 6 C-1.0625 7.75 -1.0625 7.75 -3 9 C-2.01 6.03 -1.02 3.06 0 0 Z " fill="#4D4C4D" transform="translate(326,378)"/>
<path d="M0 0 C2.78388975 1.70625501 3.85384206 2.47626739 4.75 5.6875 C4.8325 6.450625 4.915 7.21375 5 8 C2 7 2 7 0 4 C0 2.68 0 1.36 0 0 Z " fill="#1F1F1F" transform="translate(753,356)"/>
<path d="M0 0 C4.875 4.75 4.875 4.75 6 7 C3.13275314 6.42655063 2.1385485 6.1385485 0 4 C0 2.68 0 1.36 0 0 Z " fill="#363636" transform="translate(725,345)"/>
<path d="M0 0 C0.66 0.33 1.32 0.66 2 1 C1.67 1.99 1.34 2.98 1 4 C-1.31 4.33 -3.62 4.66 -6 5 C-4.06745228 2.9754262 -2.36841312 1.57894208 0 0 Z " fill="#3C3B3B" transform="translate(431,257)"/>
<path d="M0 0 C0.66 0.33 1.32 0.66 2 1 C0 4 0 4 -1.9453125 4.51171875 C-2.66460937 4.56972656 -3.38390625 4.62773437 -4.125 4.6875 C-6.043125 4.8421875 -6.043125 4.8421875 -8 5 C-7.67 4.34 -7.34 3.68 -7 3 C-5.68 3 -4.36 3 -3 3 C-3 2.34 -3 1.68 -3 1 C-2.01 0.67 -1.02 0.34 0 0 Z " fill="#474747" transform="translate(461,241)"/>
<path d="M0 0 C-0.99 1.485 -0.99 1.485 -2 3 C-4.64 2.67 -7.28 2.34 -10 2 C-3.72972973 -1.24324324 -3.72972973 -1.24324324 0 0 Z " fill="#484747" transform="translate(519,223)"/>
<path d="M0 0 C0 0.33 0 0.66 0 1 C-1.1446875 1.2165625 -1.1446875 1.2165625 -2.3125 1.4375 C-5.08172908 1.9632594 -5.08172908 1.9632594 -8 3 C-10.6875 2.5625 -10.6875 2.5625 -13 2 C-13 1.67 -13 1.34 -13 1 C-8.59085217 -0.10228696 -4.51617599 -0.07654536 0 0 Z " fill="#3E3E3E" transform="translate(572,812)"/>
<path d="M0 0 C-0.66 0 -1.32 0 -2 0 C-2 0.66 -2 1.32 -2 2 C-4.64 2 -7.28 2 -10 2 C-6.80505194 -1.19494806 -4.22040044 -1.35655728 0 0 Z " fill="#4A4949" transform="translate(610,803)"/>
<path d="M0 0 C4 1 4 1 5.8125 3.4375 C6.204375 4.283125 6.59625 5.12875 7 6 C6.67 6.66 6.34 7.32 6 8 C4.02 5.36 2.04 2.72 0 0 Z " fill="#2C2C2C" transform="translate(402,623)"/>
<path d="M0 0 C1.32 0.33 2.64 0.66 4 1 C4.33 3.31 4.66 5.62 5 8 C2.74754119 5.31158141 1.11786042 3.35358125 0 0 Z " fill="#333333" transform="translate(339,615)"/>
<path d="M0 0 C2.72426311 2.35277269 3.8141763 4.62496331 5 8 C4.01 8 3.02 8 2 8 C0.23537317 4.91190305 0 3.76687864 0 0 Z " fill="#383838" transform="translate(370,602)"/>
<path d="M0 0 C0.66 0 1.32 0 2 0 C1.25 6.625 1.25 6.625 -1 10 C-1.125 3.375 -1.125 3.375 0 0 Z " fill="#161516" transform="translate(340,441)"/>
<path d="M0 0 C1.04005702 3.38018531 1.08004482 6.4780279 1 10 C0.01 9.67 -0.98 9.34 -2 9 C-1.51421457 5.87709365 -1.0013988 3.00419641 0 0 Z " fill="#343332" transform="translate(318,399)"/>
<path d="M0 0 C0.99 0.495 0.99 0.495 2 1 C2 1.99 2 2.98 2 4 C2.99 3.67 3.98 3.34 5 3 C5 5.31 5 7.62 5 10 C2.08772731 6.71195019 0.50298788 4.40114397 0 0 Z " fill="#454546" transform="translate(771,393)"/>
<path d="M0 0 C1 3 1 3 -0.4375 6.1875 C-1.2109375 7.5796875 -1.2109375 7.5796875 -2 9 C-2.66 9 -3.32 9 -4 9 C-2.94124926 5.59687262 -1.99097846 2.98646769 0 0 Z " fill="#131313" transform="translate(365,373)"/>
<path d="M0 0 C0.33 0 0.66 0 1 0 C1 2.31 1 4.62 1 7 C-0.98 7.99 -0.98 7.99 -3 9 C-2.01 6.03 -1.02 3.06 0 0 Z " fill="#525251" transform="translate(330,369)"/>
<path d="M0 0 C0.66 1.32 1.32 2.64 2 4 C1.01 5.485 1.01 5.485 0 7 C-0.99 7 -1.98 7 -3 7 C-1.125 1.125 -1.125 1.125 0 0 Z " fill="#3D3D3C" transform="translate(340,351)"/>
<path d="M0 0 C0.75 1.6875 0.75 1.6875 1 4 C-0.9375 6.75 -0.9375 6.75 -3 9 C-3.26218749 5.85375007 -3.24754367 4.38162983 -1.5 1.6875 C-1.005 1.130625 -0.51 0.57375 0 0 Z " fill="#3B3A3C" transform="translate(260,344)"/>
<path d="M0 0 C0.66 0.99 1.32 1.98 2 3 C0.71034824 4.37562854 -0.62689293 5.70766393 -2 7 C-2.66 7 -3.32 7 -4 7 C-2.92598892 4.08482708 -2.22189824 2.22189824 0 0 Z " fill="#343434" transform="translate(354,330)"/>
<path d="M0 0 C0.66 0.33 1.32 0.66 2 1 C0.02 3.31 -1.96 5.62 -4 8 C-4.33 6.68 -4.66 5.36 -5 4 C-3.35 2.68 -1.7 1.36 0 0 Z " fill="#181818" transform="translate(373,308)"/>
<path d="M0 0 C0.66 0.33 1.32 0.66 2 1 C0.02 3.31 -1.96 5.62 -4 8 C-4.66 7.67 -5.32 7.34 -6 7 C-4.02 4.69 -2.04 2.38 0 0 Z " fill="#2F2F2F" transform="translate(402,278)"/>
<path d="M0 0 C0 0.99 0 1.98 0 3 C-2.64 3.33 -5.28 3.66 -8 4 C-5.31752816 1.31752816 -3.87224464 0 0 0 Z " fill="#222222" transform="translate(478,273)"/>
<path d="M0 0 C0.4125 0.45375 0.825 0.9075 1.25 1.375 C3.06408095 3.05950374 4.75285627 3.99265971 7 5 C6.01 5.495 6.01 5.495 5 6 C3.0546875 5.22265625 3.0546875 5.22265625 0.875 4.0625 C0.15054687 3.68222656 -0.57390625 3.30195312 -1.3203125 2.91015625 C-1.87460937 2.60980469 -2.42890625 2.30945313 -3 2 C-2.01 1.34 -1.02 0.68 0 0 Z " fill="#535352" transform="translate(450,718)"/>
<path d="M0 0 C0.66 0 1.32 0 2 0 C0.63016497 3.16115776 0.0109362 3.9927092 -3 6 C-3.99 5.67 -4.98 5.34 -6 5 C-2.25 2 -2.25 2 0 2 C0 1.34 0 0.68 0 0 Z " fill="#D4D4D4" transform="translate(725,697)"/>
<path d="M0 0 C4.875 4.75 4.875 4.75 6 7 C3.5625 6.3125 3.5625 6.3125 1 5 C0.1875 2.375 0.1875 2.375 0 0 Z " fill="#373737" transform="translate(384,623)"/>
<path d="M0 0 C0.33 0 0.66 0 1 0 C0.67 2.64 0.34 5.28 0 8 C-0.99 8 -1.98 8 -3 8 C-1.125 2.25 -1.125 2.25 0 0 Z " fill="#494B4A" transform="translate(768,583)"/>
<path d="M0 0 C1 3 1 3 -0.4375 6.1875 C-1.2109375 7.5796875 -1.2109375 7.5796875 -2 9 C-2.33 9 -2.66 9 -3 9 C-2.25 2.25 -2.25 2.25 0 0 Z " fill="#131314" transform="translate(334,365)"/>
<path d="M0 0 C0.625 1.8125 0.625 1.8125 1 4 C0.01 5.485 0.01 5.485 -1 7 C-1.99 6.67 -2.98 6.34 -4 6 C-2.68 4.02 -1.36 2.04 0 0 Z " fill="#1E1E1D" transform="translate(372,361)"/>
<path d="M0 0 C0.33 0 0.66 0 1 0 C1.24954005 1.43410368 1.47392642 2.87260072 1.6875 4.3125 C1.81511719 5.11300781 1.94273437 5.91351563 2.07421875 6.73828125 C2 9 2 9 0.51953125 10.79296875 C0.01808594 11.19128906 -0.48335938 11.58960938 -1 12 C-1.66 11.67 -2.32 11.34 -3 11 C-2.34 10.01 -1.68 9.02 -1 8 C-0.54860541 5.9507906 -0.54860541 5.9507906 -0.375 3.8125 C-0.25125 2.554375 -0.1275 1.29625 0 0 Z " fill="#5C5C5B" transform="translate(486,324)"/>
<path d="M0 0 C0.99 0.33 1.98 0.66 3 1 C0.6875 3.0625 0.6875 3.0625 -2 5 C-2.99 4.67 -3.98 4.34 -5 4 C-2.6875 1.9375 -2.6875 1.9375 0 0 Z " fill="#1C1C1C" transform="translate(433,297)"/>
<path d="M0 0 C2.64 0.33 5.28 0.66 8 1 C8 1.33 8 1.66 8 2 C4.37 2.66 0.74 3.32 -3 4 C-2.01 2.68 -1.02 1.36 0 0 Z " fill="#555455" transform="translate(447,214)"/>
</svg>
